<svg width="230" height="56" viewBox="0 0 230 56" fill="none" xmlns="http://www.w3.org/2000/svg">
<path d="M105.18 7.30294H97.9619V0H105.18V7.30294ZM105.18 42.5068H97.9619V11.3289H105.18V42.5068Z" fill="black"/>
<path d="M147.74 42.5068V0.0936279H154.958V42.5068H147.74Z" fill="black"/>
<path d="M83.2441 0.0936279H89.8062V42.5069H83.2441V38.1064C80.7131 41.5706 77.2445 43.2559 72.6511 43.2559C68.4326 43.2559 64.9641 41.7578 61.9643 38.6681C58.9645 35.5784 57.5584 31.7397 57.5584 27.3392C57.5584 22.8451 59.0583 19.1 61.9643 16.0103C64.9641 12.9206 68.4326 11.4225 72.6511 11.4225C77.2445 11.4225 80.8068 13.1078 83.2441 16.4784V0.0936279ZM73.6823 36.9828C76.4009 36.9828 78.7444 36.0466 80.5256 34.2676C82.3067 32.3951 83.2441 30.0544 83.2441 27.3392C83.2441 24.5304 82.3067 22.2833 80.5256 20.4108C78.7444 18.5382 76.4009 17.602 73.6823 17.602C70.9637 17.602 68.6201 18.5382 66.839 20.4108C65.0579 22.1897 64.1204 24.5304 64.1204 27.3392C64.1204 30.148 65.0579 32.3951 66.839 34.2676C68.6201 36.1402 70.9637 36.9828 73.6823 36.9828Z" fill="black"/>
<path d="M165.644 38.6681C162.55 35.5784 160.957 31.8333 160.957 27.3392C160.957 22.8451 162.55 19.1 165.644 16.0103C168.738 12.9206 172.581 11.4225 176.987 11.4225C181.487 11.4225 185.236 12.9206 188.33 16.0103C191.423 19.1 193.017 22.8451 193.017 27.3392C193.017 31.8333 191.423 35.5784 188.33 38.6681C185.236 41.7578 181.487 43.2559 176.987 43.2559C172.581 43.2559 168.738 41.7578 165.644 38.6681ZM176.987 36.8892C179.612 36.8892 181.862 35.9529 183.737 34.174C185.518 32.3951 186.455 30.0544 186.455 27.3392C186.455 24.624 185.518 22.2833 183.737 20.5044C181.955 18.7255 179.706 17.7892 176.987 17.7892C174.362 17.7892 172.112 18.7255 170.237 20.5044C168.456 22.2833 167.519 24.624 167.519 27.3392C167.519 30.0544 168.456 32.3951 170.237 34.174C172.112 36.0465 174.362 36.8892 176.987 36.8892Z" fill="black"/>
<path d="M222.829 11.3289V16.5721C220.298 13.1078 216.829 11.3289 212.236 11.3289C207.924 11.3289 204.361 12.827 201.361 15.9167C198.362 18.9127 196.956 22.6578 196.956 26.9647C196.956 31.2716 198.455 34.923 201.361 38.0127C204.361 41.0088 207.924 42.6005 212.236 42.6005C216.735 42.6005 220.298 40.8216 222.829 37.3573V41.0088C222.829 46.2519 219.454 49.3416 213.829 49.3416C209.517 49.3416 206.517 47.75 205.017 44.6603C205.017 44.5666 204.924 44.473 204.924 44.3794H197.987C198.268 45.8774 198.643 47.1882 199.299 48.4054C199.299 48.499 199.393 48.499 199.393 48.5926C199.487 48.7799 199.58 48.8735 199.674 48.9671C202.393 53.3676 206.986 55.2402 213.642 55.2402C217.954 55.2402 221.798 54.4912 224.797 52.0568C227.797 49.6225 229.953 45.5965 229.953 41.0088V39.5108V12.0779V11.3289H222.829ZM220.016 33.7059C218.235 35.4848 215.892 36.4211 213.173 36.4211C210.455 36.4211 208.111 35.4848 206.236 33.7059C204.455 31.9269 203.518 29.6799 203.518 26.9647C203.518 24.2495 204.455 22.0024 206.236 20.2235C208.111 18.4446 210.455 17.5083 213.173 17.5083C215.892 17.5083 218.235 18.4446 220.016 20.2235C221.891 22.0024 222.735 24.2495 222.829 26.8711V27.1519C222.735 29.7735 221.891 31.9269 220.016 33.7059Z" fill="black"/>
<path d="M139.584 25.373C139.771 14.9804 133.678 11.4225 125.803 11.4225C117.929 11.4225 112.492 15.5422 112.023 22.1897H119.148C119.335 18.2573 121.96 16.7593 125.522 16.7593C129.084 16.7593 132.272 18.4446 132.272 24.0622V23.4069C120.366 24.624 110.336 25.4667 110.336 33.5186C110.336 39.4171 115.304 43.2559 122.429 43.2559C126.741 43.2559 131.522 41.5706 133.115 39.5108V42.5068H139.49L139.584 25.373ZM132.553 29.6799C132.553 35.2039 129.366 37.9191 124.022 37.9191C120.366 37.9191 118.023 36.2338 118.023 33.3314C118.023 29.5863 122.241 29.399 132.553 28.3691V29.6799Z" fill="black"/>
<path d="M23.9046 0.655396C10.6868 0.655396 0 11.3289 0 24.5304C0 37.7319 10.6868 48.4054 23.9046 48.4054C37.1225 48.4054 47.8092 37.7319 47.8092 24.5304C47.8092 11.3289 37.1225 0.655396 23.9046 0.655396ZM33.7477 34.3613L23.9046 44.1922V38.3872C20.3424 38.3872 16.7801 36.9828 14.0615 34.2676C8.62441 28.8372 8.62441 20.0363 14.0615 14.6059C19.4987 9.17549 28.3106 9.17549 33.7477 14.6059C39.1848 20.1299 39.1848 28.9309 33.7477 34.3613Z" fill="#9888C4"/>
</svg>
