<svg width="27" height="19" viewBox="0 0 27 19" fill="none" xmlns="http://www.w3.org/2000/svg">
<path fill-rule="evenodd" clip-rule="evenodd" d="M0.504272 3.96475C0.504272 2.01246 2.15199 0.364746 4.10427 0.364746H14.5043C16.4566 0.364746 18.1043 2.01246 18.1043 3.96475V5.45779L25.0157 2.54332C25.3245 2.41311 25.678 2.44622 25.9572 2.63151C26.2364 2.8168 26.4043 3.12964 26.4043 3.46475V15.4647C26.4043 15.7999 26.2364 16.1127 25.9572 16.298C25.678 16.4833 25.3245 16.5164 25.0157 16.3862L18.1043 13.4717V14.9647C18.1043 16.917 16.4566 18.5647 14.5043 18.5647H4.10427C2.15199 18.5647 0.504272 16.917 0.504272 14.9647V3.96475ZM4.10427 2.36475C3.25656 2.36475 2.50427 3.11703 2.50427 3.96475V14.9647C2.50427 15.8125 3.25656 16.5647 4.10427 16.5647H14.5043C15.352 16.5647 16.1043 15.8125 16.1043 14.9647V11.9647C16.1043 11.6296 16.2721 11.3168 16.5513 11.1315C16.8306 10.9462 17.184 10.9131 17.4928 11.0433L24.4043 13.9578V4.97171L17.4928 7.88617C17.184 8.01638 16.8306 7.98327 16.5513 7.79798C16.2721 7.61269 16.1043 7.29986 16.1043 6.96475V3.96475C16.1043 3.11703 15.352 2.36475 14.5043 2.36475H4.10427Z" fill="white"/>
</svg>
