<svg width="20" height="19" viewBox="0 0 20 19" fill="none" xmlns="http://www.w3.org/2000/svg">
<path d="M17.8152 3.60924C17.6188 3.33414 17.4224 3.05904 17.226 2.78394L6.34664 9.0327L1.08368 6.00657C0.96585 6.36027 0.887298 6.67467 0.848022 7.02838L6.38592 10.2117L17.8152 3.60924Z" fill="#1A9F29"/>
<path d="M6.34734 11.3908L0.69162 8.12882C0.652344 8.32532 0.652344 8.56112 0.652344 8.75763C0.652344 13.906 4.81558 18.1111 9.99999 18.1111C15.1451 18.1111 19.3476 13.9453 19.3476 8.75763C19.3476 7.22491 18.9942 5.7708 18.3265 4.51318L6.34734 11.3908Z" fill="#1A9F29"/>
<path d="M16.4821 1.99781C16.2071 1.72271 15.9322 1.52621 15.6573 1.29041L6.3489 6.67456L1.87146 4.12003C1.71435 4.39514 1.55725 4.70954 1.40015 5.02394L6.30963 7.85357L16.4821 1.99781Z" fill="#1A9F29"/>
<path d="M14.7142 0.661412C14.3607 0.46491 14.0072 0.268408 13.6145 0.111206L6.34842 4.31635L3.08853 2.46923C2.85287 2.70503 2.65649 2.98014 2.42084 3.25524L6.30915 5.49536L14.7142 0.661412Z" fill="#1A9F29"/>
</svg>
