<svg width="29" height="54" viewBox="0 0 29 54" fill="none" xmlns="http://www.w3.org/2000/svg">
<path d="M6.20648 20.8528L1.86439 26.7011C1.48914 27.1931 1.27472 27.849 1.27472 28.4502V36.1023C1.27472 36.9768 2.34684 37.3594 2.8829 36.6488L5.93845 32.6042" stroke="#9888C4" stroke-width="2" stroke-miterlimit="10" stroke-linecap="round"/>
<path d="M22.7172 20.8528L27.0593 26.7011C27.4345 27.1931 27.6489 27.849 27.6489 28.4502V36.1023C27.6489 36.9768 26.5768 37.3594 26.0407 36.6488L22.9852 32.6042" stroke="#9888C4" stroke-width="2" stroke-miterlimit="10" stroke-linecap="round"/>
<path d="M18.3835 35.1186C20.9233 34.3866 22.6636 33.0376 22.6636 31.5111C22.6636 3.90905 14.2474 1.99603 14.2474 1.99603C14.2474 1.99603 5.83124 3.96371 5.83124 31.5658C5.83124 33.0834 7.55136 34.4256 10.0672 35.1604" stroke="#9888C4" stroke-width="2" stroke-miterlimit="10" stroke-linecap="round"/>
<path d="M14.2474 39.7769C13.3897 39.7769 12.6392 39.0664 12.6392 38.1372V24.5695C12.6392 23.695 13.3361 22.9298 14.2474 22.9298C15.1051 22.9298 15.8556 23.6404 15.8556 24.5695V38.1919C15.8556 39.0664 15.1051 39.7769 14.2474 39.7769Z" stroke="#9888C4" stroke-width="2" stroke-miterlimit="10"/>
<path d="M14.2474 18.6665C16.0534 18.6665 17.5174 17.1737 17.5174 15.3323C17.5174 13.491 16.0534 11.9982 14.2474 11.9982C12.4415 11.9982 10.9774 13.491 10.9774 15.3323C10.9774 17.1737 12.4415 18.6665 14.2474 18.6665Z" stroke="#9888C4" stroke-width="2" stroke-miterlimit="10"/>
<path d="M19.5008 38.7504C20.4121 40.0076 21.6451 42.2485 21.0018 44.6534C20.573 46.2932 19.3936 47.1677 18.0535 48.1515C16.7133 49.19 15.2123 50.2832 14.1938 52.4148C13.1753 50.3378 11.6743 49.19 10.3342 48.1515C8.99404 47.1677 7.86831 46.2932 7.38585 44.6534C6.74258 42.2485 7.92191 40.0076 8.83322 38.7504" stroke="#D08CEF" stroke-width="2" stroke-miterlimit="10" stroke-linecap="round" stroke-linejoin="round"/>
</svg>
