<svg width="49" height="50" viewBox="0 0 49 50" fill="none" xmlns="http://www.w3.org/2000/svg">
<path d="M13.6884 25.19L6.03008 28.9342L8.46382 33.9121L16.1222 30.1679L13.6884 25.19Z" stroke="#9888C4" stroke-width="2" stroke-miterlimit="10" stroke-linecap="round" stroke-linejoin="round"/>
<path d="M7.36172 31.6272L3.51325 33.5353" stroke="#9888C4" stroke-width="2" stroke-miterlimit="10" stroke-linecap="round" stroke-linejoin="round"/>
<path d="M4.73189 36.1414L2.33591 31.15" stroke="#9888C4" stroke-width="2" stroke-miterlimit="10" stroke-linecap="round" stroke-linejoin="round"/>
<path d="M21.8345 30.6808L17.3746 32.8632L12.4102 22.5698L40.0119 9.08976L44.986 19.3127L32.2977 25.5248" stroke="#9888C4" stroke-width="2" stroke-miterlimit="10" stroke-linecap="round" stroke-linejoin="round"/>
<path d="M25.952 33.0486C28.0315 33.0486 29.7172 31.3629 29.7172 29.2834C29.7172 27.204 28.0315 25.5182 25.952 25.5182C23.8726 25.5182 22.1868 27.204 22.1868 29.2834C22.1868 31.3629 23.8726 33.0486 25.952 33.0486Z" stroke="#9888C4" stroke-width="2" stroke-miterlimit="10" stroke-linecap="round" stroke-linejoin="round"/>
<path d="M45.94 21.237L39.0482 7.23596" stroke="#9888C4" stroke-width="2" stroke-miterlimit="10" stroke-linecap="round" stroke-linejoin="round"/>
<path d="M24.105 32.7645L17.356 48.1093" stroke="#9888C4" stroke-width="2" stroke-miterlimit="10" stroke-linecap="round" stroke-linejoin="round"/>
<path d="M28.0122 32.7645L34.7611 48.1093" stroke="#9888C4" stroke-width="2" stroke-miterlimit="10" stroke-linecap="round" stroke-linejoin="round"/>
<path d="M14.8052 1.59338C15.2315 3.44045 16.7233 4.93232 18.5704 5.35856C16.7233 5.85585 15.2315 7.27667 14.8052 9.19478C14.3079 7.27667 12.8871 5.85585 10.969 5.35856C12.8871 4.93232 14.3079 3.44045 14.8052 1.59338Z" stroke="#D08CEF" stroke-width="2" stroke-miterlimit="10" stroke-linejoin="round"/>
</svg>
