<svg width="44" height="34" viewBox="0 0 44 34" fill="none" xmlns="http://www.w3.org/2000/svg">
<g clip-path="url(#clip0)">
<path d="M18.2222 27.5066V31.114" stroke="#9888C4" stroke-width="2" stroke-miterlimit="10" stroke-linecap="round" stroke-linejoin="round"/>
<path d="M25.8667 27.2361H4.35555C2.4 27.2361 0.888885 25.6127 0.888885 23.7188V4.4191C0.888885 2.5252 2.48889 0.901855 4.35555 0.901855H32C33.9556 0.901855 35.5556 2.5252 35.5556 4.4191V9.83024" stroke="#9888C4" stroke-width="2" stroke-miterlimit="10" stroke-linecap="round" stroke-linejoin="round"/>
<path d="M9.95557 32.4668H23.8222" stroke="#9888C4" stroke-width="2" stroke-miterlimit="10" stroke-linecap="round" stroke-linejoin="round"/>
<path d="M30.1333 33.0982H41.2444C42.6667 33.0982 43.1111 32.7374 43.1111 31.9258C43.1111 29.5809 40.2667 26.4244 35.6444 26.4244C31.0222 26.4244 28.1778 29.5809 28.1778 31.9258C28.2667 32.7374 28.7111 33.0982 30.1333 33.0982Z" stroke="#D08CEF" stroke-width="2" stroke-miterlimit="10" stroke-linecap="round" stroke-linejoin="round"/>
<path d="M35.6444 22.6366C37.6 22.6366 39.3778 20.9231 39.3778 18.7586C39.3778 16.5942 37.6 14.9708 35.6444 14.9708C33.6889 14.9708 31.9111 16.5942 31.9111 18.7586C31.9111 20.9231 33.6889 22.6366 35.6444 22.6366Z" stroke="#D08CEF" stroke-width="2" stroke-miterlimit="10" stroke-linecap="round" stroke-linejoin="round"/>
<path d="M7.55556 19.2997H13.7778C14.5778 19.2997 14.8444 19.0291 14.8444 18.6684C14.8444 17.4058 13.2444 15.6021 10.6667 15.6021C8.08889 15.6021 6.48889 17.4058 6.48889 18.6684C6.48889 19.0291 6.75556 19.2997 7.55556 19.2997Z" stroke="#9888C4" stroke-width="2" stroke-miterlimit="10" stroke-linecap="round" stroke-linejoin="round"/>
<path d="M10.6667 13.1671C11.8222 13.1671 12.7111 12.2652 12.7111 11.0026C12.7111 9.8302 11.7333 8.92834 10.6667 8.92834C9.51111 8.92834 8.62222 9.8302 8.62222 11.0026C8.62222 12.175 9.6 13.1671 10.6667 13.1671Z" stroke="#9888C4" stroke-width="2" stroke-miterlimit="10" stroke-linecap="round" stroke-linejoin="round"/>
<path d="M20.0889 19.2997H26.3111C27.1111 19.2997 27.3778 19.0291 27.3778 18.6684C27.3778 17.4058 25.7778 15.6021 23.2 15.6021C20.6222 15.6021 19.0222 17.4058 19.0222 18.6684C19.0222 19.0291 19.2889 19.2997 20.0889 19.2997Z" stroke="#9888C4" stroke-width="2" stroke-miterlimit="10" stroke-linecap="round" stroke-linejoin="round"/>
<path d="M23.2 13.1671C24.3556 13.1671 25.2444 12.2652 25.2444 11.0026C25.2444 9.8302 24.2667 8.92834 23.2 8.92834C22.0444 8.92834 21.1556 9.8302 21.1556 11.0026C21.0667 12.175 22.0444 13.1671 23.2 13.1671Z" stroke="#9888C4" stroke-width="2" stroke-miterlimit="10" stroke-linecap="round" stroke-linejoin="round"/>
</g>
<defs>
<clipPath id="clip0">
<rect width="44" height="34" fill="white"/>
</clipPath>
</defs>
</svg>
