<svg width="21" height="22" viewBox="0 0 21 22" fill="none" xmlns="http://www.w3.org/2000/svg">
<path d="M19.4948 1.7C19.2948 1.2 18.7948 1 18.2948 1H1.89481C1.39481 1 0.894808 1.3 0.694808 1.7C0.494808 2.2 0.494808 2.7 0.794808 3.1L7.09481 11.4C7.19481 11.5 7.19481 11.6 7.19481 11.7V19.7C7.19481 20.4 7.79481 20.9 8.39481 20.9C8.59481 20.9 8.69481 20.9 8.89481 20.8L12.0948 19.4C12.5948 19.2 12.7948 18.7 12.7948 18.2V11.6C12.7948 11.5 12.7948 11.4 12.8948 11.3L19.0948 3.1C19.5948 2.7 19.6948 2.2 19.4948 1.7Z" stroke="#9888C4" stroke-miterlimit="10" stroke-linecap="round" stroke-linejoin="round"/>
<path d="M2.2948 4.40002H15.6948" stroke="#D08CEF" stroke-miterlimit="10" stroke-linecap="round" stroke-linejoin="round"/>
</svg>
