<svg width="49" height="42" viewBox="0 0 49 42" fill="none" xmlns="http://www.w3.org/2000/svg">
<path d="M20.1492 34.1731C17.7899 36.5629 16.2728 38.0997 13.738 40.6672C13.5311 40.8768 13.1863 40.7371 13.1863 40.4577V36.2665C10.1521 36.2665 7.11787 35.079 4.84219 32.7739C0.221874 28.0938 0.221874 20.4799 4.84219 15.7998C7.10079 13.512 10.084 12.3252 13.0573 12.2967" stroke="#D08CEF" stroke-width="2" stroke-miterlimit="10" stroke-linecap="round" stroke-linejoin="round"/>
<path d="M42.7012 29.5607L32.0814 40.318C31.8055 40.5974 31.3228 40.3878 31.3228 39.9687V34.3107C27.1852 34.3107 23.1166 32.7041 19.9444 29.5607C13.6691 23.2042 13.6691 12.866 19.9444 6.50948C26.2198 0.152927 36.4259 0.152927 42.7012 6.50948C48.9766 12.866 48.9766 23.2042 42.7012 29.5607Z" stroke="#9888C4" stroke-width="2" stroke-miterlimit="10" stroke-linecap="round" stroke-linejoin="round"/>
<path d="M31.2539 20.1903C32.2766 20.1903 33.1057 19.3505 33.1057 18.3145C33.1057 17.2785 32.2766 16.4387 31.2539 16.4387C30.2312 16.4387 29.4021 17.2785 29.4021 18.3145C29.4021 19.3505 30.2312 20.1903 31.2539 20.1903Z" fill="#9888C4"/>
<path d="M23.1059 20.1903C24.1286 20.1903 24.9577 19.3505 24.9577 18.3145C24.9577 17.2785 24.1286 16.4387 23.1059 16.4387C22.0832 16.4387 21.2541 17.2785 21.2541 18.3145C21.2541 19.3505 22.0832 20.1903 23.1059 20.1903Z" fill="#9888C4"/>
<path d="M39.4019 20.1903C40.4246 20.1903 41.2537 19.3505 41.2537 18.3145C41.2537 17.2785 40.4246 16.4387 39.4019 16.4387C38.3791 16.4387 37.55 17.2785 37.55 18.3145C37.55 19.3505 38.3791 20.1903 39.4019 20.1903Z" fill="#9888C4"/>
</svg>
