<svg width="130"
     height="131"
     viewBox="25 29 77 77"
     fill="none"
     xmlns="http://www.w3.org/2000/svg">
  <path d="M45.4014 56.0212H61.1101C62.6969 56.0212 63.9662 57.2689 63.9662 58.8285V66.9772C63.9662 68.5368 62.6969 69.7844 61.1101 69.7844H45.4014C43.8147 69.7844 42.5453 68.5368 42.5453 66.9772V58.7895C42.585 57.2689 43.8543 56.0212 45.4014 56.0212Z"
        stroke="#9888C4"
        stroke-width="2"
        stroke-miterlimit="10"
        stroke-linecap="round"/>
  <path d="M48.2179 63.6242C48.9628 63.6242 49.5666 63.0307 49.5666 62.2985C49.5666 61.5664 48.9628 60.9729 48.2179 60.9729C47.473 60.9729 46.8691 61.5664 46.8691 62.2985C46.8691 63.0307 47.473 63.6242 48.2179 63.6242Z"
        fill="#9888C4"/>
  <path d="M58.135 63.8191C58.8799 63.8191 59.4837 63.2256 59.4837 62.4935C59.4837 61.7614 58.8799 61.1678 58.135 61.1678C57.3901 61.1678 56.7863 61.7614 56.7863 62.4935C56.7863 63.2256 57.3901 63.8191 58.135 63.8191Z"
        fill="#9888C4"/>
  <path d="M53.0574 86.4718C36.595 86.4718 36.595 77.7383 36.595 77.7383C36.595 76.1787 37.8644 74.931 39.4512 74.931H66.7034C68.2901 74.931 69.5595 76.1787 69.5595 77.7383C69.5595 77.7772 69.5595 86.4718 53.0574 86.4718Z"
        stroke="#9888C4"
        stroke-width="2"
        stroke-miterlimit="10"
        stroke-linecap="round"/>
  <path d="M41.633 62.4545H40.1652"
        stroke="#9888C4"
        stroke-width="2"
        stroke-miterlimit="10"
        stroke-linecap="round"/>
  <path d="M65.9893 62.4545H64.5216"
        stroke="#9888C4"
        stroke-width="2"
        stroke-miterlimit="10"
        stroke-linecap="round"/>
  <path d="M85.7738 40.6415H81.6039C75.733 40.6415 70.9331 45.3202 70.9331 51.1296V61.2278C70.9331 62.5924 72.0438 63.6841 73.4322 63.6841H85.7738C91.6448 63.6841 96.4446 59.0054 96.4446 53.196V51.1296C96.405 45.3202 91.6448 40.6415 85.7738 40.6415Z"
        stroke="#D08CEF"
        stroke-width="2"
        stroke-miterlimit="10"
        stroke-linecap="round"/>
  <line x1="78"
        y1="50.0386"
        x2="89.5636"
        y2="50.0386"
        stroke="#D08CEF"
        stroke-width="2"
        stroke-linecap="round"/>
  <line x1="78"
        y1="56.8097"
        x2="85.1048"
        y2="56.8097"
        stroke="#D08CEF"
        stroke-width="2"
        stroke-linecap="round"/>
</svg>
