<svg width="40" height="35" viewBox="0 0 40 35" fill="none" xmlns="http://www.w3.org/2000/svg">
<path d="M8.05242 27.7658H5.06552C3.32316 27.7658 1.82971 26.3527 1.82971 24.524V5.07311C1.82971 3.2444 3.24019 1.8313 5.06552 1.8313H8.05242C9.79478 1.8313 11.2882 3.2444 11.2882 5.07311V24.6071C11.2882 26.3527 9.87775 27.7658 8.05242 27.7658Z" stroke="#9888C4" stroke-width="2" stroke-miterlimit="10" stroke-linecap="round" stroke-linejoin="round"/>
<path d="M15.6026 1.8313H33.1092C35.9301 1.8313 38.1703 4.07563 38.1703 6.90183V28.0983C38.1703 30.9245 35.9301 33.1688 33.1092 33.1688H11.2882C8.46723 33.1688 6.22705 30.9245 6.22705 28.0983" stroke="#9888C4" stroke-width="2" stroke-miterlimit="10" stroke-linecap="round" stroke-linejoin="round"/>
<path d="M32.0725 16.461H16.898C16.336 16.461 15.9345 16.0454 15.9345 15.4635V8.64738C15.9345 8.06552 16.4162 7.6499 16.898 7.6499H32.0725C32.6346 7.6499 33.036 8.06552 33.036 8.64738V15.4635C33.036 15.9622 32.5543 16.461 32.0725 16.461Z" stroke="#D08CEF" stroke-width="2" stroke-miterlimit="10" stroke-linecap="round" stroke-linejoin="round"/>
<path d="M17.8579 21.0327H19.6497" stroke="#9888C4" stroke-width="2" stroke-miterlimit="10" stroke-linecap="round" stroke-linejoin="round"/>
<path d="M17.8579 24.6902H19.6497" stroke="#9888C4" stroke-width="2" stroke-miterlimit="10" stroke-linecap="round" stroke-linejoin="round"/>
<path d="M17.8579 28.3477H19.6497" stroke="#9888C4" stroke-width="2" stroke-miterlimit="10" stroke-linecap="round" stroke-linejoin="round"/>
<path d="M23.9225 21.0327H25.7142" stroke="#9888C4" stroke-width="2" stroke-miterlimit="10" stroke-linecap="round" stroke-linejoin="round"/>
<path d="M23.9225 24.6902H25.7142" stroke="#9888C4" stroke-width="2" stroke-miterlimit="10" stroke-linecap="round" stroke-linejoin="round"/>
<path d="M23.9225 28.3477H25.7142" stroke="#9888C4" stroke-width="2" stroke-miterlimit="10" stroke-linecap="round" stroke-linejoin="round"/>
<path d="M29.9869 21.0327H31.7787" stroke="#9888C4" stroke-width="2" stroke-miterlimit="10" stroke-linecap="round" stroke-linejoin="round"/>
<path d="M29.9869 24.6902H31.7787" stroke="#9888C4" stroke-width="2" stroke-miterlimit="10" stroke-linecap="round" stroke-linejoin="round"/>
<path d="M29.9869 28.3477H31.7787" stroke="#9888C4" stroke-width="2" stroke-miterlimit="10" stroke-linecap="round" stroke-linejoin="round"/>
</svg>
