<svg width="23" height="22" viewBox="0 0 23 22" fill="none" xmlns="http://www.w3.org/2000/svg">
<path d="M4.6554 6.8C4.6554 3.6 7.2554 1 10.4554 1H12.0554C15.2554 1 17.8554 3.6 17.8554 6.8" stroke="#9888C4" stroke-miterlimit="10"/>
<path d="M13.8555 18.5C16.2555 17.6 17.8555 15.3 17.8555 12.7" stroke="#9888C4" stroke-miterlimit="10"/>
<path d="M4.8554 6.09998C2.8554 6.09998 1.1554 7.69998 1.1554 9.79998C1.1554 11.4 2.2554 12.8 3.7554 13.3C4.2554 13.5 4.8554 13.1 4.8554 12.5V6.09998Z" stroke="#9888C4" stroke-miterlimit="10"/>
<path d="M17.8555 6.09998C19.8555 6.09998 21.5555 7.69998 21.5555 9.79998C21.5555 11.4 20.4555 12.8 18.9555 13.3C18.4555 13.5 17.8555 13.1 17.8555 12.5V6.09998V6.09998Z" stroke="#9888C4" stroke-miterlimit="10"/>
<path d="M12.1554 20.9C13.2047 20.9 14.0554 20.0493 14.0554 19C14.0554 17.9506 13.2047 17.1 12.1554 17.1C11.106 17.1 10.2554 17.9506 10.2554 19C10.2554 20.0493 11.106 20.9 12.1554 20.9Z" stroke="#D08CEF" stroke-miterlimit="10"/>
</svg>
