<svg width="57" height="49" viewBox="0 0 57 49" fill="none" xmlns="http://www.w3.org/2000/svg">
<g clip-path="url(#clip0)">
<path d="M4.82245 34.7869C6.5617 36.8286 8.69624 38.9488 11.3051 40.9904C17.2344 45.702 22.8474 48.2148 27.1165 48.2148C27.2746 48.2148 27.5118 48.2148 27.6699 48.2148C28.9348 48.0577 30.0416 47.4295 30.8322 46.4872L32.7295 44.1314C33.9154 42.6395 33.6782 40.5193 32.1761 39.4199L28.8557 36.8286C27.4327 35.7292 25.2191 35.9648 24.1123 37.3782L22.6893 39.1843C22.215 39.4199 19.448 38.8702 15.5742 35.8077C14.7046 35.1795 14.0721 34.5513 13.4396 33.9231L11.8585 32.117C10.9098 30.8606 10.5145 29.9183 10.5936 29.6827L12.0166 27.8766C13.2025 26.3847 12.9653 24.2645 11.4632 23.1651L8.14284 20.5738C6.71981 19.3959 4.50622 19.6314 3.39943 21.1234L2.05546 22.7725C0.632435 24.5786 0.395264 27.1699 1.423 29.6042C1.89734 30.7036 2.60886 31.8814 3.39943 33.0593L4.82245 34.7869Z" stroke="#D08CEF" stroke-width="2" stroke-miterlimit="10" stroke-linecap="round" stroke-linejoin="round"/>
<path d="M8.93341 15.7837V7.45996C8.93341 3.76925 11.9376 0.785278 15.6532 0.785278H49.4896C53.2053 0.785278 56.2094 3.76925 56.2094 7.45996V30.7035C56.2094 34.3943 53.2053 37.3782 49.4896 37.3782H37.7892" stroke="#9888C4" stroke-width="2" stroke-miterlimit="10" stroke-linecap="round" stroke-linejoin="round"/>
<path d="M26.5631 27.5625H38.6588C40.1609 27.5625 40.7143 27.0913 40.7143 26.306C40.7143 23.7932 37.6311 20.4166 32.5714 20.4166C27.5909 20.4166 24.4286 23.8718 24.4286 26.306C24.4286 27.1698 24.982 27.5625 26.5631 27.5625Z" stroke="#9888C4" stroke-width="2" stroke-miterlimit="10" stroke-linecap="round" stroke-linejoin="round"/>
<path d="M32.5714 17.4326C34.785 17.4326 36.7614 15.6265 36.7614 13.1923C36.7614 10.8365 34.785 9.0304 32.5714 9.0304C30.3578 9.0304 28.3814 10.8365 28.3814 13.1923C28.3814 15.548 30.3578 17.4326 32.5714 17.4326Z" stroke="#9888C4" stroke-width="2" stroke-miterlimit="10" stroke-linecap="round" stroke-linejoin="round"/>
</g>
<defs>
<clipPath id="clip0">
<rect width="57" height="49" fill="white"/>
</clipPath>
</defs>
</svg>
