<svg width="49" height="53" viewBox="0 0 49 53" fill="none" xmlns="http://www.w3.org/2000/svg">
<path d="M26.7 46.7064C28.1912 46.7064 29.4 45.4976 29.4 44.0064C29.4 42.5152 28.1912 41.3064 26.7 41.3064C25.2088 41.3064 24 42.5152 24 44.0064C24 45.4976 25.2088 46.7064 26.7 46.7064Z" stroke="#D08CEF" stroke-width="2" stroke-miterlimit="10" stroke-linejoin="round"/>
<path d="M24.1 44.0063H16.7" stroke="#D08CEF" stroke-width="2" stroke-miterlimit="10" stroke-linejoin="round"/>
<path d="M29.4 44.0063H37.3" stroke="#D08CEF" stroke-width="2" stroke-miterlimit="10" stroke-linejoin="round"/>
<path d="M26.7 40.6063V28.0063" stroke="#D08CEF" stroke-width="2" stroke-miterlimit="10" stroke-linejoin="round"/>
<path d="M42.8 17.2063C43.5 16.3063 43.9 15.1063 43.9 13.9063C43.9 10.8063 41.4 8.30632 38.3 8.30632C37.8 8.30632 37.2 8.40632 36.8 8.50632C36.1 4.50632 32.6 1.60632 28.4 1.60632C24.3 1.60632 20.8 4.50632 20 8.40632C19 7.30632 17.6 6.60632 16 6.60632C12.9 6.60632 10.4 9.10632 10.4 12.2063C10.4 12.5063 10.4 12.8063 10.5 13.2063C6.39998 13.2063 3.09998 16.6063 3.09998 20.7063C3.09998 24.8063 6.39998 28.2063 10.6 28.2063H41.2C44.3 28.2063 46.8 25.7063 46.8 22.6063C46.7 20.0063 45.1 17.9063 42.8 17.2063Z" stroke="#9888C4" stroke-width="2" stroke-miterlimit="10" stroke-linejoin="round"/>
<path d="M14.2 48.8063H3.5C2.1 48.8063 1 47.6063 1 46.2063V41.2063C1 39.8063 2.1 38.7063 3.5 38.7063H14.1C15.5 38.7063 16.6 39.8063 16.6 41.2063V46.2063C16.7 47.6063 15.6 48.8063 14.2 48.8063Z" stroke="#9888C4" stroke-width="2" stroke-miterlimit="10" stroke-linejoin="round"/>
<path d="M46.6 51.3063H38.4001C37.8001 51.3063 37.3 50.8063 37.3 50.2063V38.8063C37.3 38.2063 37.8001 37.7063 38.4001 37.7063H46.6C47.2 37.7063 47.7001 38.2063 47.7001 38.8063V50.2063C47.7001 50.8063 47.2 51.3063 46.6 51.3063Z" stroke="#9888C4" stroke-width="2" stroke-miterlimit="10" stroke-linejoin="round"/>
<path d="M8.90002 48.8064V51.3064" stroke="#9888C4" stroke-width="2" stroke-miterlimit="10" stroke-linejoin="round"/>
<path d="M5.40002 51.6063H12.4" stroke="#9888C4" stroke-width="2" stroke-miterlimit="10" stroke-linecap="round" stroke-linejoin="round"/>
<path d="M37.3 42.4062H47.1" stroke="#9888C4" stroke-width="2" stroke-miterlimit="10" stroke-linejoin="round"/>
<path d="M37.3 46.6063H47.1" stroke="#9888C4" stroke-width="2" stroke-miterlimit="10" stroke-linejoin="round"/>
<path d="M32.2999 22.7063H21.6C20.5 22.7063 19.7 23.6063 19.7 24.6063V26.1063C19.7 27.2063 20.6 28.0063 21.6 28.0063H32.2C33.3 28.0063 34.0999 27.1063 34.0999 26.1063V24.6063C34.1999 23.5063 33.2999 22.7063 32.2999 22.7063Z" stroke="#9888C4" stroke-width="2" stroke-miterlimit="10" stroke-linejoin="round"/>
<path d="M32.2999 17.3064H21.6C20.5 17.3064 19.7 18.2064 19.7 19.2064V20.7064C19.7 21.8064 20.6 22.6064 21.6 22.6064H32.2C33.3 22.6064 34.0999 21.7064 34.0999 20.7064V19.2064C34.1999 18.2064 33.2999 17.3064 32.2999 17.3064Z" stroke="#9888C4" stroke-width="2" stroke-miterlimit="10" stroke-linejoin="round"/>
<path d="M32.2999 12.0063H21.6C20.5 12.0063 19.7 12.9063 19.7 13.9063V15.4063C19.7 16.5063 20.6 17.3063 21.6 17.3063H32.2C33.3 17.3063 34.0999 16.4063 34.0999 15.4063V13.9063C34.1999 12.8063 33.2999 12.0063 32.2999 12.0063Z" stroke="#9888C4" stroke-width="2" stroke-miterlimit="10" stroke-linejoin="round"/>
</svg>
