<svg width="111" height="110" viewBox="25 25 55 55" fill="none" xmlns="http://www.w3.org/2000/svg">
<path d="M60.5016 62.935H37.5604C36.0604 62.935 34.9133 61.7971 34.9133 60.3091V40.0014C34.9133 38.5133 36.0604 37.3754 37.5604 37.3754H66.678C68.178 37.3754 69.3251 38.5133 69.3251 40.0014V46.3037" stroke="#9888C4" stroke-width="2" stroke-miterlimit="10" stroke-linecap="round" stroke-linejoin="round"/>
<path d="M43.7369 68.0995H59.6192" stroke="#9888C4" stroke-width="2" stroke-miterlimit="10" stroke-linecap="round" stroke-linejoin="round"/>
<path d="M73.031 68.6247H66.8545C65.7075 68.6247 64.7369 67.6618 64.7369 66.5239V53.2188C64.7369 52.0809 65.7075 51.118 66.8545 51.118H73.031C74.1781 51.118 75.1486 52.0809 75.1486 53.2188V66.5239C75.1486 67.6618 74.1781 68.6247 73.031 68.6247Z" stroke="#D08CEF" stroke-width="2" stroke-miterlimit="10" stroke-linecap="round"/>
<path d="M70.2075 66.699C70.9385 66.699 71.531 66.1111 71.531 65.386C71.531 64.6608 70.9385 64.073 70.2075 64.073C69.4765 64.073 68.884 64.6608 68.884 65.386C68.884 66.1111 69.4765 66.699 70.2075 66.699Z" fill="#9888C4"/>
<path d="M52.1193 63.1976V66.699" stroke="#9888C4" stroke-width="2" stroke-miterlimit="10" stroke-linecap="round" stroke-linejoin="round"/>
</svg>
