<svg width="56" height="57" viewBox="0 0 56 57" fill="none" xmlns="http://www.w3.org/2000/svg">
<path d="M49.9787 31.1191C50.3382 29.4959 50.4281 27.8727 50.4281 26.2496C50.4281 12.8132 39.5539 1.90173 26.1634 1.90173C12.7729 1.90173 1.89868 12.8132 1.89868 26.2496C1.89868 39.686 12.7729 50.5974 26.1634 50.5974C27.3317 50.5974 28.4101 50.5072 29.4886 50.3269" stroke="#9888C4" stroke-width="2" stroke-miterlimit="10" stroke-linecap="round" stroke-linejoin="round"/>
<path d="M49.0801 50.0564L54.0504 55.0437" stroke="#D08CEF" stroke-width="2" stroke-miterlimit="10" stroke-linecap="round" stroke-linejoin="round"/>
<path d="M42.7892 52.6715C47.7029 52.6715 51.6862 48.6745 51.6862 43.7439C51.6862 38.8134 47.7029 34.8164 42.7892 34.8164C37.8754 34.8164 33.8921 38.8134 33.8921 43.7439C33.8921 48.6745 37.8754 52.6715 42.7892 52.6715Z" stroke="#D08CEF" stroke-width="2" stroke-miterlimit="10" stroke-linecap="round" stroke-linejoin="round"/>
<path d="M34.3415 33.6441C34.9706 32.562 35.5997 31.2093 35.9592 29.6763C36.768 29.0451 37.6667 28.4138 37.6667 26.0692V23.905C37.6667 22.4621 37.1275 21.7407 36.4085 21.7407V17.5024C36.4984 17.0515 36.5883 14.3462 34.701 12.1819C32.9935 10.2882 30.2974 9.29626 26.7026 9.29626C23.1079 9.29626 20.3219 10.2882 18.7043 12.1819C16.817 14.3462 16.9968 17.0515 16.9968 17.5024V21.7407C16.1879 21.7407 15.7386 22.4621 15.7386 23.905V26.0692C15.7386 28.504 16.6373 29.0451 17.4461 29.6763C18.1651 32.562 19.6928 34.7262 20.232 35.4476V38.0628C20.232 38.7842 19.8726 39.5056 19.1536 39.8663L11.9641 43.7439C11.6945 43.8341 11.5147 44.0145 11.2451 44.1948" stroke="#9888C4" stroke-width="2" stroke-miterlimit="10" stroke-linecap="round"/>
</svg>
