<svg width="25" height="25" viewBox="0 0 25 25" fill="none" xmlns="http://www.w3.org/2000/svg">
<path d="M10.7 20.4792C16.0572 20.4792 20.4 16.1364 20.4 10.7792C20.4 5.42206 16.0572 1.07922 10.7 1.07922C5.34284 1.07922 1 5.42206 1 10.7792C1 16.1364 5.34284 20.4792 10.7 20.4792Z" stroke="#9888C4" stroke-miterlimit="10" stroke-linecap="round" stroke-linejoin="round"/>
<path d="M19.7001 19.7794L23.8001 23.8794" stroke="#9888C4" stroke-miterlimit="10" stroke-linecap="round" stroke-linejoin="round"/>
<path d="M10.7 10.979C12.2464 10.979 13.5 9.72543 13.5 8.17903C13.5 6.63263 12.2464 5.37903 10.7 5.37903C9.15363 5.37903 7.90002 6.63263 7.90002 8.17903C7.90002 9.72543 9.15363 10.979 10.7 10.979Z" stroke="#D08CEF" stroke-miterlimit="10" stroke-linecap="round" stroke-linejoin="round"/>
<path d="M14.8001 16.1791C14.1001 14.5791 12.6001 13.4791 10.7001 13.4791C8.9001 13.4791 7.3001 14.5791 6.6001 16.1791" stroke="#D08CEF" stroke-miterlimit="10" stroke-linecap="round" stroke-linejoin="round"/>
</svg>
