<svg width="111" height="110" viewBox="25 25 55 55" fill="none" xmlns="http://www.w3.org/2000/svg">
<path d="M33.1152 62.9452C34.4679 64.5332 36.1281 66.1822 38.1572 67.7702C42.7689 71.4347 47.1346 73.3892 50.455 73.3892C50.5779 73.3892 50.7624 73.3892 50.8854 73.3892C51.8692 73.267 52.73 72.7784 53.3449 72.0455L54.8207 70.2132C55.743 69.0528 55.5585 67.4038 54.3902 66.5487L51.8077 64.5332C50.7009 63.6782 48.9792 63.8614 48.1184 64.9607L47.0116 66.3655C46.6427 66.5487 44.4906 66.1212 41.4776 63.7392C40.8012 63.2506 40.3093 62.762 39.8174 62.2734L38.5876 60.8687C37.8498 59.8915 37.5423 59.1586 37.6038 58.9753L38.7106 57.5706C39.633 56.4102 39.4485 54.7611 38.2802 53.9061L35.6977 51.8906C34.5909 50.9744 32.8692 51.1577 32.0084 52.3181L30.9631 53.6007C29.8563 55.0054 29.6718 57.0209 30.4711 58.9143C30.8401 59.7693 31.3935 60.6855 32.0084 61.6016L33.1152 62.9452Z" stroke="#D08CEF" stroke-width="2" stroke-miterlimit="10" stroke-linecap="round" stroke-linejoin="round"/>
<path d="M36.3126 48.1652V41.6912C36.3126 38.8206 38.6491 36.4998 41.5391 36.4998H67.8563C70.7462 36.4998 73.0828 38.8206 73.0828 41.6912V59.7695C73.0828 62.6401 70.7462 64.9609 67.8563 64.9609H58.7559" stroke="#9888C4" stroke-width="2" stroke-miterlimit="10" stroke-linecap="round" stroke-linejoin="round"/>
<line x1="45.6149" y1="48.2969" x2="45.7691" y2="53.6983" stroke="#9888C4" stroke-width="2"/>
<line x1="51.6946" y1="43.8278" x2="51.9554" y2="58.1883" stroke="#9888C4" stroke-width="2"/>
<line x1="64.0908" y1="46.7068" x2="64.0908" y2="55.3458" stroke="#9888C4" stroke-width="2"/>
<line x1="58.014" y1="47.8631" x2="57.9017" y2="54.2244" stroke="#9888C4" stroke-width="2"/>
</svg>
