<svg width="60" height="41" viewBox="0 0 60 41" fill="none" xmlns="http://www.w3.org/2000/svg">
<path fill-rule="evenodd" clip-rule="evenodd" d="M34.1101 5.91296L41.4262 7.3865L41.4837 7.40556C41.8006 7.51053 42.088 7.70579 42.304 7.94418C42.5129 8.17483 42.7417 8.54579 42.7417 9.01835V16.6013C42.7417 20.2599 40.5691 22.7931 38.6385 24.3075L38.6159 24.3253L38.5923 24.3417C37.6557 24.9931 36.7121 25.6255 35.9328 25.9574L35.9216 25.9621L34.1101 26.6821L32.2456 25.9411L32.1854 25.9069C32.0683 25.8404 31.9342 25.767 31.7873 25.6865C31.1747 25.3509 30.3398 24.8934 29.5874 24.312L29.5817 24.3075C27.6511 22.7931 25.4785 20.2599 25.4785 16.6013V9.01835C25.4785 8.25075 26.0059 7.58404 26.8098 7.38434L26.8315 7.37895L34.1101 5.91296ZM27.4785 9.2888V16.6013C27.4785 19.3866 29.1198 21.4025 30.8132 22.7317C31.4269 23.2055 32.0795 23.564 32.6839 23.8961C32.8298 23.9763 32.9729 24.0549 33.1119 24.1332L34.1101 24.5299L35.1597 24.1128C35.7105 23.8761 36.4723 23.3795 37.4263 22.7165C39.1128 21.3871 40.7417 19.376 40.7417 16.6013V9.2888L34.1101 7.95313L27.4785 9.2888Z" fill="#D08CEF"/>
<path fill-rule="evenodd" clip-rule="evenodd" d="M6.68579 5.13211C6.68579 2.7547 8.68431 0.814575 11.12 0.814575H48.8963C51.3691 0.814575 53.2351 2.79156 53.2351 5.13211V31.6297H6.68579V5.13211ZM11.12 2.81458C9.7399 2.81458 8.68579 3.90762 8.68579 5.13211V29.6297H51.2351V5.13211C51.2351 3.87076 50.2393 2.81458 48.8963 2.81458H11.12Z" fill="#9888C4"/>
<path fill-rule="evenodd" clip-rule="evenodd" d="M7.20819 29.7245H52.7076L58.547 36.8272C59.219 37.6617 59.185 38.7117 58.7925 39.4915C58.4003 40.271 57.5844 40.9188 56.5279 40.9188H3.48847C1.29576 40.9188 0.217597 38.5357 1.4414 36.8637L1.4555 36.8444L7.20819 29.7245ZM8.16349 31.7245L3.04418 38.0605C2.89627 38.2731 2.90443 38.4849 2.97906 38.6369C3.05154 38.7845 3.20678 38.9188 3.48847 38.9188H56.5279C56.7116 38.9188 56.8974 38.8083 57.006 38.5925C57.1135 38.3788 57.0809 38.1977 56.9914 38.0842C56.9906 38.0833 56.9899 38.0824 56.9892 38.0815L51.7628 31.7245H8.16349Z" fill="#9888C4"/>
<path fill-rule="evenodd" clip-rule="evenodd" d="M38.3346 12.9437C38.7318 13.3274 38.7427 13.9605 38.3589 14.3577L33.78 19.097C33.594 19.2895 33.3387 19.3994 33.071 19.4021C32.8034 19.4049 32.5458 19.3002 32.356 19.1115L29.8757 16.6471C29.484 16.2578 29.4819 15.6247 29.8712 15.2329C30.2605 14.8411 30.8936 14.8391 31.2854 15.2284L33.0463 16.978L36.9206 12.968C37.3044 12.5708 37.9374 12.5599 38.3346 12.9437Z" fill="#9888C4"/>
<path fill-rule="evenodd" clip-rule="evenodd" d="M15.3667 16.1273C15.3667 15.575 15.8144 15.1273 16.3667 15.1273H21.3272C21.8795 15.1273 22.3272 15.575 22.3272 16.1273C22.3272 16.6796 21.8795 17.1273 21.3272 17.1273H16.3667C15.8144 17.1273 15.3667 16.6796 15.3667 16.1273Z" fill="#D08CEF"/>
<path fill-rule="evenodd" clip-rule="evenodd" d="M18.847 12.6628C19.3993 12.6628 19.847 13.1106 19.847 13.6628V18.5918C19.847 19.144 19.3993 19.5918 18.847 19.5918C18.2948 19.5918 17.847 19.144 17.847 18.5918V13.6628C17.847 13.1106 18.2948 12.6628 18.847 12.6628Z" fill="#D08CEF"/>
</svg>
