<svg width="33" height="43" viewBox="0 0 33 43" xmlns="http://www.w3.org/2000/svg">
<path d="M32.5 8.52033C32.5 8.37212 32.5 7.90748 32.3671 7.60106C32.1891 7.19078 32.1 7.10005 31.8 6.80005L26.1 1.10005C25.8 0.800049 25.4 0.500049 25 0.400049C24.8 0.400049 24.6 0.300049 24.4 0.300049C24.3 0.300049 24.3 0.300049 24.2 0.300049C24.1 0.300049 24 0.300049 23.9 0.300049H5.9C2.6 0.300049 0 2.90005 0 6.10005V23.6C0 24.2 0.4 24.6 1 24.6C1.6 24.6 2 24.2 2 23.6V6.10005C2 4.00005 3.7 2.30005 5.8 2.30005H23.3V7.00005C23.3 8.40005 24.4 9.50005 25.8 9.50005H30.5V36.3C30.5 38.5 28.7 40.2001 26.6 40.2001H24.3C24.2 40.2001 24.1 40.2001 24 40.3C23.9 40.3 23.8 40.4001 23.7 40.5C23.7 40.5 23.6 40.5 23.6 40.6C23.5 40.7 23.4 40.8 23.4 40.9C23.4 41 23.3 41.1 23.3 41.3C23.3 41.6 23.4 41.8 23.6 42L23.7 42.1C23.9 42.2 24.1 42.3 24.3 42.3H26.6C29.9 42.3 32.5 39.7 32.5 36.4V9.10005C32.5 8.84246 32.5 8.66853 32.5 8.52033ZM25.4 7.00005V3.30005L29.6 7.50005H25.9C25.6 7.50005 25.4 7.30005 25.4 7.00005Z" />
<path d="M9.3 15.9001H24.4C25 15.9001 25.4 15.5001 25.4 14.9001C25.4 14.3001 25 13.9001 24.4 13.9001H9.3C8.7 13.9001 8.3 14.3001 8.3 14.9001C8.3 15.5001 8.7 15.9001 9.3 15.9001Z" />
<path d="M9.3 23.2H24.4C25 23.2 25.4 22.8 25.4 22.2C25.4 21.6 25 21.2 24.4 21.2H9.3C8.7 21.2 8.3 21.6 8.3 22.2C8.3 22.8 8.7 23.2 9.3 23.2Z" />
<path d="M19.9 40.3C19.3 40.3 18.9 40.7 18.9 41.3C18.9 41.9 19.3 42.3 19.9 42.3C20.5 42.3 20.9 41.9 20.9 41.3C20.9 40.7 20.5 40.3 19.9 40.3Z" />
<path d="M11 40.3C10.4 40.3 10 40.7 10 41.3C10 41.9 10.4 42.3 11 42.3C11.6 42.3 12 41.9 12 41.3C12 40.7 11.5 40.3 11 40.3Z" />
<path d="M15.4 40.3C14.8 40.3 14.4 40.7 14.4 41.3C14.4 41.9 14.8 42.3 15.4 42.3C16 42.3 16.4 41.9 16.4 41.3C16.4 40.7 16 40.3 15.4 40.3Z" />
<path d="M6.9 40.4C6.5 40.2 6.1 40.3 5.8 40.6C5.6 40.8 5.5 41.1 5.5 41.3C5.5 41.4 5.5 41.6 5.6 41.7C5.6 41.8 5.7 41.9 5.8 42C6 42.2 6.3 42.3 6.5 42.3C6.6 42.3 6.8 42.3 6.9 42.2C7 42.2 7.1 42.1 7.2 42C7.3 41.9 7.4 41.8 7.4 41.7C7.5 41.6 7.5 41.5 7.5 41.3C7.5 41 7.4 40.8 7.2 40.6C7.1 40.5 7 40.4 6.9 40.4Z" />
<path d="M16.6 34.2C16 34.2 15.6 34.6 15.6 35.2C15.6 35.8 16 36.2 16.6 36.2C17.2 36.2 17.6 35.8 17.6 35.2C17.6 34.6 17.1 34.2 16.6 34.2Z" />
<path d="M5.89999 35.2C5.89999 34.6 5.39999 34.2 4.89999 34.2C4.39999 34.2 3.89999 34.6 3.89999 35.2C3.89999 35.8 4.29999 36.2 4.89999 36.2C5.49999 36.2 5.89999 35.8 5.89999 35.2Z" />
<path d="M8.8 34.2C8.2 34.2 7.8 34.6 7.8 35.2C7.8 35.8 8.2 36.2 8.8 36.2C9.4 36.2 9.8 35.8 9.8 35.2C9.8 34.6 9.3 34.2 8.8 34.2Z" />
<path d="M12.7 34.2C12.1 34.2 11.7 34.6 11.7 35.2C11.7 35.8 12.1 36.2 12.7 36.2C13.3 36.2 13.7 35.8 13.7 35.2C13.7 34.6 13.2 34.2 12.7 34.2Z" />
<path d="M1.4 34.3001C1 34.1001 0.6 34.2001 0.3 34.5001C0.1 34.7001 0 35.0001 0 35.2001C0 35.5001 0.1 35.7001 0.3 35.9001C0.5 36.1001 0.8 36.2001 1 36.2001C1.1 36.2001 1.3 36.2001 1.4 36.1001C1.5 36.0001 1.6 36.0001 1.7 35.9001C1.9 35.7001 2 35.5001 2 35.2001C2 34.9001 1.9 34.7001 1.7 34.5001C1.6 34.4001 1.5 34.3001 1.4 34.3001Z" />
<path d="M25.3 28.7C25.2 28.6 25.2 28.5 25.1 28.4C25 28.3 24.9 28.3 24.8 28.2H24.7C24.6 28.2 24.5 28.2 24.5 28.2C24.5 28.2 24.5 28.2 24.4 28.2H16.7C16.7 28.2 16.7 28.2 16.6 28.2C16.6 28.2 16.6 28.2 16.5 28.2C15.9 28.2 15.5 28.6 15.5 29.2C15.5 29.8 15.9 30.2 16.5 30.2C16.5 30.2 16.5 30.2 16.6 30.2C16.6 30.2 16.6 30.2 16.7 30.2H20.5H24.4C24.5 30.2 24.7 30.2 24.8 30.1C24.9 30.1 25 30 25 29.9C25 29.9 25.1 29.9 25.1 29.8C25.2 29.7 25.3 29.6 25.3 29.5C25.3 29.4 25.4 29.3 25.4 29.1C25.4 29 25.4 28.9 25.3 28.7Z" />
<path d="M12.7 28.1001C12.1 28.1001 11.7 28.5001 11.7 29.1001C11.7 29.7001 12.1 30.1001 12.7 30.1001C13.3 30.1001 13.7 29.7001 13.7 29.1001C13.7 28.5001 13.2 28.1001 12.7 28.1001Z" />
<path d="M4.89999 30.1001C5.49999 30.1001 5.89999 29.7001 5.89999 29.1001C5.89999 28.5001 5.39999 28.1001 4.89999 28.1001C4.39999 28.1001 3.89999 28.5001 3.89999 29.1001C3.89999 29.7001 4.29999 30.1001 4.89999 30.1001Z" />
<path d="M8.8 28.1001C8.2 28.1001 7.8 28.5001 7.8 29.1001C7.8 29.7001 8.2 30.1001 8.8 30.1001C9.4 30.1001 9.8 29.7001 9.8 29.1001C9.8 28.5001 9.3 28.1001 8.8 28.1001Z" />
<path d="M1.4 28.1999C1 28.0999 0.6 28.0999 0.3 28.3999C0.1 28.5999 0 28.8999 0 29.0999C0 29.3999 0.1 29.5999 0.3 29.7999C0.5 29.9999 0.8 30.0999 1 30.0999C1.1 30.0999 1.3 30.0999 1.4 29.9999C1.5 29.8999 1.6 29.8999 1.7 29.7999C1.9 29.5999 2 29.3999 2 29.0999C2 28.7999 1.9 28.5999 1.7 28.3999C1.6 28.2999 1.5 28.2999 1.4 28.1999Z" />
<path d="M25.1 34.5C25.1 34.5 25 34.3999 24.9 34.3999L24.8 34.2999C24.8 34.2999 24.8 34.2999 24.7 34.2999C24.6 34.2999 24.6 34.3 24.5 34.2H24.4C24.4 34.2 24.4 34.2 24.3 34.2H20.5C19.9 34.2 19.5 34.6 19.5 35.2C19.5 35.8 19.9 36.2 20.5 36.2H24.3C24.4 36.2 24.6 36.1999 24.7 36.0999C24.8 36.0999 24.8 36 24.9 36L25 35.8999C25.1 35.7999 25.2 35.6999 25.2 35.5999C25.2 35.4999 25.3 35.4 25.3 35.2C25.3 35.1 25.3 34.8999 25.2 34.7999C25.2 34.6999 25.2 34.6 25.1 34.5Z" />
</svg>
