<svg width="49" height="49" viewBox="0 0 49 49" fill="none" xmlns="http://www.w3.org/2000/svg">
<path fill-rule="evenodd" clip-rule="evenodd" d="M21.3 5C21.3 3.34315 22.6431 2 24.3 2C25.9568 2 27.3 3.34315 27.3 5C27.3 6.65685 25.9568 8 24.3 8C22.6431 8 21.3 6.65685 21.3 5ZM24.3 0C21.64 0 19.4652 2.07707 19.309 4.69776C12.1514 6.46079 6.46079 12.1514 4.69776 19.309C2.07707 19.4652 0 21.64 0 24.3C0 26.96 2.0771 29.1348 4.69783 29.291C6.46401 36.4557 12.1663 42.0549 19.3153 43.8944C19.5164 46.4715 21.6713 48.5 24.3 48.5C26.9287 48.5 29.0836 46.4714 29.2847 43.8943C36.4411 42.0515 42.0515 36.4411 43.8943 29.2847C46.4714 29.0836 48.5 26.9287 48.5 24.3C48.5 21.6713 46.4714 19.5163 43.8943 19.3153C42.052 12.1612 36.4447 6.55216 29.2916 4.70749C29.1401 2.08221 26.9632 0 24.3 0ZM19.5644 41.8915C20.2341 39.9192 22.1013 38.5 24.3 38.5C26.4986 38.5 28.3658 39.9191 29.0356 41.8913C35.2844 40.1876 40.1876 35.2844 41.8913 29.0356C39.9191 28.3658 38.5 26.4986 38.5 24.3C38.5 22.1014 39.9191 20.2342 41.8913 19.5644C40.1847 13.3049 35.2677 8.39565 29.0036 6.70001C28.3078 8.62456 26.4645 10 24.3 10C22.1313 10 20.2851 8.61928 19.5924 6.68892C13.313 8.3122 8.3122 13.313 6.68892 19.5924C8.61928 20.2851 10 22.1313 10 24.3C10 26.4686 8.61934 28.3148 6.68906 29.0075C8.30756 35.2594 13.2875 40.1827 19.5644 41.8915ZM21.3 43.5C21.3 41.8431 22.6431 40.5 24.3 40.5C25.9568 40.5 27.3 41.8431 27.3 43.5C27.3 45.1569 25.9568 46.5 24.3 46.5C22.6431 46.5 21.3 45.1569 21.3 43.5ZM43.5 21.3C41.8431 21.3 40.5 22.6431 40.5 24.3C40.5 25.9568 41.8431 27.3 43.5 27.3C45.1569 27.3 46.5 25.9568 46.5 24.3C46.5 22.6431 45.1569 21.3 43.5 21.3ZM2 24.3C2 22.6431 3.34315 21.3 5 21.3C6.65685 21.3 8 22.6431 8 24.3C8 25.9568 6.65685 27.3 5 27.3C3.34315 27.3 2 25.9568 2 24.3ZM24.0114 14.6425C24.2048 14.5842 24.4113 14.5859 24.6038 14.6472L31.5163 16.8512C32.0682 17.0352 32.7 17.5249 32.7 18.4V24.8C32.7 28.0148 30.4384 30.1762 28.5547 31.432C27.5859 32.0779 26.6263 32.5049 25.9201 32.8079C25.4736 33.029 24.8981 33.2602 24.2961 33.3806C24.1667 33.4064 24.0333 33.4064 23.9039 33.3806C23.4088 33.2815 22.9603 33.0927 22.5911 32.9372L22.591 32.9372C22.4984 32.8982 22.4107 32.8613 22.3286 32.8285L22.3061 32.8191C21.5975 32.5154 20.6261 32.0859 19.6453 31.432C17.7616 30.1762 15.5 28.0148 15.5 24.8V18.4C15.5 17.5249 16.1319 17.0353 16.6838 16.8513L16.6948 16.8477L16.7114 16.8425L24.0114 14.6425ZM17.5 18.6937V24.8C17.5 26.9851 19.0384 28.6237 20.7547 29.7679C21.5695 30.3111 22.3937 30.6806 23.0829 30.9761C23.2332 31.0364 23.3616 31.09 23.4758 31.1377C23.725 31.2419 23.9069 31.3179 24.1028 31.373C24.4285 31.2868 24.7625 31.1507 25.0528 31.0055C25.0703 30.9968 25.0881 30.9885 25.1061 30.9808C25.7975 30.6845 26.6261 30.314 27.4453 29.7679C29.1616 28.6237 30.7 26.9851 30.7 24.8V18.6902L24.2917 16.6469L17.5 18.6937ZM27.9071 23.1071C28.2976 22.7166 28.2976 22.0834 27.9071 21.6929C27.5166 21.3024 26.8834 21.3024 26.4929 21.6929L23.3 24.8858L22.0071 23.5929C21.6166 23.2024 20.9834 23.2024 20.5929 23.5929C20.2024 23.9834 20.2024 24.6166 20.5929 25.0071L22.5929 27.0071C22.9834 27.3977 23.6166 27.3977 24.0071 27.0071L27.9071 23.1071Z" fill="white"/>
</svg>
