<svg width="41" height="41" viewBox="5 5 30 30" fill="none" xmlns="http://www.w3.org/2000/svg">
<path d="M15.9825 24.9137H24.2282C25.2808 24.9137 25.6317 24.6524 25.6317 24.0426C25.6317 22.3876 23.5264 20.0356 20.1054 20.0356C16.6843 20.0356 14.579 22.3876 14.579 24.0426C14.579 24.5653 15.0176 24.9137 15.9825 24.9137Z" stroke="white" stroke-miterlimit="10"/>
<path d="M20.193 31.0112C26.6848 31.0112 31.9474 25.7853 31.9474 19.3387C31.9474 12.8922 26.6848 7.66626 20.193 7.66626C13.7013 7.66626 8.43866 12.8922 8.43866 19.3387C8.43866 25.7853 13.7013 31.0112 20.193 31.0112Z" stroke="white" stroke-miterlimit="10"/>
<path d="M28.3509 27.614L32.6491 31.8823" stroke="white" stroke-miterlimit="10" stroke-linecap="round"/>
<path d="M20.193 17.945C21.6842 17.945 23 16.7255 23 15.0704C23 13.4154 21.6842 12.283 20.193 12.283C18.7018 12.283 17.2983 13.5025 17.2983 15.0704C17.2983 16.6384 18.6141 17.945 20.193 17.945Z" stroke="white" stroke-miterlimit="10"/>
</svg>
