<svg width="40" height="40" viewBox="5 5 30 30" fill="none" xmlns="http://www.w3.org/2000/svg">
<path d="M30.194 17.2269C31.525 16.6723 32.1462 15.0084 31.525 13.7143C30.9926 12.3278 29.3953 11.7732 28.0643 12.4202L22.9175 14.916L13.1564 9.46223C13.0677 9.46223 12.9789 9.36979 12.8902 9.46223L10.4943 10.6639C10.4056 10.6639 10.3168 10.8488 10.4056 10.9412L16.7059 18.0589L13.4226 19.6303L9.69567 17.5967C9.60693 17.5967 9.51819 17.5042 9.42946 17.5967L6.76734 18.8908C6.6786 18.9832 6.58986 19.0757 6.6786 19.1681L12.624 24.9916L30.194 17.2269Z" stroke="white" stroke-miterlimit="10" stroke-linejoin="round"/>
<path d="M8.45337 30.5378H29.3066" stroke="white" stroke-miterlimit="10" stroke-linecap="round" stroke-linejoin="round"/>
</svg>
