<svg width="26" height="25" viewBox="0 0 26 25" fill="none" xmlns="http://www.w3.org/2000/svg">
<path d="M7.99997 13.512H0.909058V21.424C0.909058 22.62 1.81815 23.54 2.99997 23.54H23C24.1818 23.54 25.0909 22.62 25.0909 21.424V13.696H17.8181" stroke="white" stroke-miterlimit="10"/>
<path d="M0.909058 10.3839V8.3599C0.909058 7.1639 1.81815 6.2439 2.99997 6.2439H23C24.0909 6.2439 25 7.1639 25 8.3599V10.8439" stroke="white" stroke-miterlimit="10"/>
<path d="M13.9999 16.272H11.9999C11.5454 16.272 11.1818 15.904 11.1818 15.444V12.684C11.1818 12.224 11.5454 11.856 11.9999 11.856H13.9999C14.4545 11.856 14.8181 12.224 14.8181 12.684V15.444C14.8181 15.904 14.4545 16.272 13.9999 16.272Z" stroke="white" stroke-miterlimit="10"/>
<path d="M17.0909 6.24396V3.66796C17.0909 2.47196 16.0909 1.45996 14.9091 1.45996H11.4545C10.2727 1.45996 9.27271 2.47196 9.27271 3.66796V6.24396" stroke="white" stroke-miterlimit="10"/>
</svg>
