<svg width="90" height="90" viewBox="10 10 70 70" fill="none" xmlns="http://www.w3.org/2000/svg">
<path fill-rule="evenodd" clip-rule="evenodd" d="M19.8361 38.6667C19.8361 38.1145 20.2838 37.6667 20.8361 37.6667H67.7393C68.2916 37.6667 68.7393 38.1145 68.7393 38.6667V46.0001C68.7393 46.5523 68.2916 47.0001 67.7393 47.0001H63.2213V49.5001C63.2213 50.0523 62.7736 50.5001 62.2213 50.5001C61.669 50.5001 61.2213 50.0523 61.2213 49.5001V46.0001C61.2213 45.4478 61.669 45.0001 62.2213 45.0001H66.7393V39.6667H21.8361V45.0001H26.2705C26.8228 45.0001 27.2705 45.4478 27.2705 46.0001V65.9167H42C42.5523 65.9167 43 66.3645 43 66.9167C43 67.469 42.5523 67.9167 42 67.9167H26.2705C25.7182 67.9167 25.2705 67.469 25.2705 66.9167V47.0001H20.8361C20.2838 47.0001 19.8361 46.5523 19.8361 46.0001V38.6667Z" fill="white"/>
<path fill-rule="evenodd" clip-rule="evenodd" d="M30.8631 31.098C33.6375 27.8718 37.9945 26.6719 42.0595 28.0532L42.071 28.0571L42.0824 28.0613C43.4484 28.5629 45.0434 28.5629 46.4094 28.0613L46.424 28.0559L46.4388 28.051C50.5579 26.6825 55.0136 27.8508 57.6396 31.1106C58.1591 31.7159 58.7238 32.4581 59.1133 33.3244C59.2751 33.6563 59.5641 34.44 59.8388 35.2028C60.0088 35.6749 60.1913 36.1904 60.3538 36.6494C60.4676 36.9708 60.5716 37.2645 60.6545 37.496C60.8408 38.0159 60.5704 38.5884 60.0505 38.7747C59.5305 38.961 58.958 38.6906 58.7717 38.1706C58.6811 37.9176 58.5754 37.6191 58.4616 37.2973C58.3034 36.8505 58.1293 36.3585 57.9571 35.8805C57.6531 35.0363 57.4059 34.3807 57.3144 34.1984L57.3042 34.178L57.2949 34.1572C57.0186 33.5375 56.5894 32.9568 56.1123 32.402L56.1013 32.3892L56.0906 32.3759C54.0361 29.8161 50.4791 28.8221 47.0833 29.9444C45.2799 30.6023 43.2082 30.6019 41.4052 29.9431C38.1159 28.8302 34.6191 29.7977 32.3795 32.402C31.9024 32.9568 31.4733 33.5375 31.1969 34.1572L31.1763 34.2035L31.1512 34.2474C31.0384 34.444 30.7979 35.0542 30.5045 35.8774C30.2262 36.6583 29.9366 37.524 29.7271 38.1505C29.5519 38.6743 28.9853 38.9569 28.4616 38.7817C27.9378 38.6065 27.6552 38.0399 27.8303 37.5162L27.8315 37.5126C28.04 36.8893 28.3351 36.0068 28.6206 35.2059C28.8807 34.4762 29.1702 33.7038 29.3891 33.3011C29.781 32.4387 30.3453 31.7001 30.8631 31.098Z" fill="white"/>
<path fill-rule="evenodd" clip-rule="evenodd" d="M44.2459 12.8333C41.0549 12.8333 38.4738 15.4107 38.4738 18.5833C38.4738 21.7558 41.0549 24.3333 44.2459 24.3333C47.4368 24.3333 50.018 21.7558 50.018 18.5833C50.018 15.4107 47.4368 12.8333 44.2459 12.8333ZM36.4738 18.5833C36.4738 14.3 39.9565 10.8333 44.2459 10.8333C48.5352 10.8333 52.018 14.3 52.018 18.5833C52.018 22.8665 48.5352 26.3333 44.2459 26.3333C39.9565 26.3333 36.4738 22.8665 36.4738 18.5833Z" fill="white"/>
<path fill-rule="evenodd" clip-rule="evenodd" d="M58.877 54.8333C53.2388 54.8333 48.6738 59.3881 48.6738 64.9999C48.6738 70.6117 53.2388 75.1666 58.877 75.1666C64.5152 75.1666 69.0803 70.6117 69.0803 64.9999C69.0803 59.3881 64.5152 54.8333 58.877 54.8333ZM46.6738 64.9999C46.6738 58.2774 52.1405 52.8333 58.877 52.8333C65.6136 52.8333 71.0803 58.2774 71.0803 64.9999C71.0803 71.7225 65.6136 77.1666 58.877 77.1666C52.1405 77.1666 46.6738 71.7225 46.6738 64.9999Z" fill="white"/>
<path d="M56.4016 62.2438H56.0806H54.1548C53.6733 62.2438 53.3524 62.6437 53.3524 63.0436V68.4023C53.3524 68.8822 53.7536 69.2021 54.1548 69.2021H56.0806H56.3213V62.2438H56.4016Z" fill="white"/>
<path d="M64.4259 62.2438H60.4137L60.5742 59.5245C60.5742 59.2046 60.3335 58.8846 60.0125 58.8846H59.4508C59.2903 58.8846 59.0496 58.9646 58.9694 59.1246L57.1238 61.684V69.2821H62.6605C62.9013 69.2821 63.0617 69.1221 63.2222 68.9622L64.9073 65.2031C64.9073 65.1231 64.9876 65.0431 64.9876 64.9632V62.8037C65.0678 62.4838 64.7468 62.2438 64.4259 62.2438Z" fill="white"/>
</svg>
