<svg width="25" height="24" viewBox="0 0 25 24" fill="none" xmlns="http://www.w3.org/2000/svg">
<path d="M12.6 15.9C14.8091 15.9 16.6 14.1092 16.6 11.9C16.6 9.69088 14.8091 7.90002 12.6 7.90002C10.3908 7.90002 8.59998 9.69088 8.59998 11.9C8.59998 14.1092 10.3908 15.9 12.6 15.9Z" stroke="white" stroke-miterlimit="10"/>
<path fill-rule="evenodd" clip-rule="evenodd" d="M21.2 11.9C21.2 12.3 21.2 12.7 21.1 13L23.5 14.9C23.7 15.1 23.8 15.4 23.6 15.6L21.3 19.5C21.2 19.8 20.9 19.9 20.6 19.8L17.8 18.7C17.2 19.1 16.6 19.5 15.9 19.8L15.5 22.8C15.5 23.1 15.2 23.3 14.9 23.3H10.3C9.99998 23.3 9.79998 23.1 9.69998 22.8L9.29998 19.8C8.59998 19.5 7.99998 19.1 7.39998 18.7L4.59998 19.8C4.29998 19.9 3.99998 19.8 3.89998 19.5L1.59998 15.6C1.49998 15.3 1.49998 15 1.69998 14.9L4.09998 13C4.09998 12.6 3.99998 12.3 3.99998 11.9C3.99998 11.5 3.99998 11.1 4.09998 10.8L1.69998 8.9C1.49998 8.7 1.39998 8.4 1.59998 8.2L3.89998 4.3C3.99998 4 4.29998 3.9 4.59998 4L7.39998 5.1C7.99998 4.7 8.59998 4.3 9.29998 4L9.69998 1C9.69998 0.7 9.99998 0.5 10.3 0.5H14.9C15.2 0.5 15.4 0.7 15.5 1L15.9 4C16.6 4.3 17.2 4.7 17.8 5.1L20.6 4C20.9 3.9 21.2 4 21.3 4.3L23.6 8.2C23.7 8.5 23.7 8.8 23.5 8.9L21.1 10.8C21.1 11.2 21.2 11.5 21.2 11.9Z" stroke="white" stroke-miterlimit="10"/>
</svg>
