<svg width="22" height="23" viewBox="0 0 22 23" fill="none" xmlns="http://www.w3.org/2000/svg">
<g clip-path="url(#clip0)">
<path d="M3.73715 22.3992H9.71344" stroke="white" stroke-miterlimit="10" stroke-linecap="round"/>
<path fill-rule="evenodd" clip-rule="evenodd" d="M20.753 0.514901C20.587 0.343259 20.2549 0.343259 20.0889 0.514901L12.9506 4.11938C12.4526 4.37684 11.8715 4.54848 11.2905 4.54848H4.81621C2.6581 4.54848 0.91502 6.35072 0.91502 8.58207V14.4179C0.91502 16.6492 2.6581 18.4515 4.81621 18.4515H11.2905C11.8715 18.4515 12.4526 18.6231 12.9506 18.8806L20.0889 22.4851C20.4209 22.6567 20.836 22.4851 21.002 22.1418C21.085 22.0559 21.085 21.9701 21.085 21.7985V1.11565C21.085 0.858184 21.002 0.686543 20.753 0.514901Z" stroke="white" stroke-miterlimit="10"/>
<path d="M11.2905 18.4515V4.2052" stroke="white" stroke-miterlimit="10"/>
</g>
<defs>
<clipPath id="clip0">
<rect width="21" height="23" fill="white" transform="translate(0.5)"/>
</clipPath>
</defs>
</svg>
