<svg width="51" height="50" viewBox="9 7 33 33" fill="none" xmlns="http://www.w3.org/2000/svg">
<path d="M37.3378 18.8741H28.6332L29.0184 12.9799C29.0954 12.194 28.5562 11.5653 27.7859 11.5653H26.6304C26.2452 11.5653 25.8601 11.8011 25.629 12.1155L20.5449 18.9527H19.3894H15.3067C14.3053 18.9527 13.535 19.7386 13.535 20.7602V32.6271C13.535 33.6488 14.3053 34.4347 15.3067 34.4347H19.3894H21.6233H22.0085H33.5633C34.0255 34.4347 34.4877 34.1203 34.7187 33.7274L38.4163 25.4755C38.4933 25.3184 38.4933 25.1612 38.4933 24.9254V20.1315C38.5703 19.4242 38.0311 18.8741 37.3378 18.8741Z" stroke="white" stroke-width="2" stroke-miterlimit="10"/>
<path d="M20.5449 19.1884V34.1989" stroke="white" stroke-width="2" stroke-miterlimit="10"/>
</svg>
