<svg width="25" height="30" viewBox="0 0 25 30" fill="none" xmlns="http://www.w3.org/2000/svg">
<path d="M20.7057 4.54472C16.1831 0.0221214 8.91149 0.0221214 4.3889 4.54472C-0.133701 9.06732 -0.133701 16.3389 4.3889 20.8615C6.60586 23.0785 9.62092 24.2313 12.5473 24.2313V28.2219C12.5473 28.4879 12.902 28.6652 13.0794 28.4879L20.7057 20.8615C25.2283 16.4276 25.2283 9.06732 20.7057 4.54472Z" stroke="white" stroke-miterlimit="10"/>
<path d="M16.4493 10.7522H15.1191C15.3852 8.97864 14.7644 8.09185 14.2323 7.73714C13.7889 7.29375 13.0795 7.20507 12.4588 7.38242C12.1927 7.4711 12.0154 7.73714 12.0154 8.09185C12.0154 8.26921 12.0154 8.53524 12.0154 8.7126C12.1041 9.33335 12.0154 9.86542 11.838 10.4862C11.6607 10.8409 10.8626 11.2843 10.2418 11.4616C10.1531 11.373 10.0644 11.2843 9.88709 11.2843H7.49278C7.31542 11.2843 7.13806 11.4616 7.13806 11.639V16.6937C7.13806 16.871 7.31542 17.0484 7.49278 17.0484H9.97577C10.0644 17.0484 10.2418 16.9597 10.3305 16.871L11.4833 17.3144C12.1041 17.4918 12.7248 17.6691 13.3455 17.6691H16.3606C17.1587 17.6691 17.7795 17.137 17.8681 16.3389L18.3115 12.8805C18.4889 11.8163 17.6908 10.8409 16.7153 10.7522C16.6267 10.7522 16.538 10.7522 16.4493 10.7522Z" stroke="white" stroke-miterlimit="10"/>
<path d="M10.3304 11.373V16.871" stroke="white" stroke-miterlimit="10"/>
</svg>
