<svg width="24" height="23" viewBox="0 0 24 23" fill="none" xmlns="http://www.w3.org/2000/svg">
<g clip-path="url(#clip0)">
<path d="M20.1477 4.65073H18.7897V2.19853C18.7897 1.18382 18.0259 0.422791 17.0074 0.422791H7.07755C6.0591 0.422791 5.29526 1.18382 5.29526 2.19853V4.65073H3.93733C3.42811 4.65073 3.08862 4.98897 3.08862 5.49632C3.08862 6.00367 3.42811 6.34191 3.93733 6.34191H5.29526V8.79411C5.29526 9.80882 6.0591 10.5698 7.07755 10.5698H17.0074C18.0259 10.5698 18.7897 9.80882 18.7897 8.79411V6.34191H20.1477C20.6569 6.34191 20.9964 6.00367 20.9964 5.49632C20.9964 4.98897 20.6569 4.65073 20.1477 4.65073Z" stroke="white" stroke-miterlimit="10"/>
<path d="M12.0849 22.5772C0.966858 22.5772 0.966858 15.3897 0.966858 15.3897C0.966858 14.1213 1.81557 13.1066 2.91889 13.1066H21.251C22.2694 13.1066 23.203 14.1213 23.203 15.3897C23.1181 15.3897 23.1181 22.5772 12.0849 22.5772Z" stroke="white" stroke-miterlimit="10"/>
<path d="M8.85982 6.17279C8.35059 6.17279 8.01111 5.75 8.01111 5.3272C8.01111 4.90441 8.43546 4.48161 8.85982 4.48161C9.28417 4.48161 9.70853 4.90441 9.70853 5.3272C9.70853 5.75 9.28417 6.17279 8.85982 6.17279Z" fill="white"/>
<path d="M15.1403 6.17279C14.631 6.17279 14.2916 5.75 14.2916 5.3272C14.2916 4.90441 14.7159 4.48161 15.1403 4.48161C15.5646 4.48161 15.989 4.90441 15.989 5.3272C15.989 5.75 15.5646 6.17279 15.1403 6.17279Z" fill="white"/>
</g>
<defs>
<clipPath id="clip0">
<rect width="23" height="23" transform="translate(0.54248)"/>
</clipPath>
</defs>
</svg>
