<svg width="14" height="12" viewBox="0 0 14 12" fill="none" xmlns="http://www.w3.org/2000/svg">
<path fill-rule="evenodd" clip-rule="evenodd" d="M0.5 1.77041C0.5 0.81118 1.29368 0.0335693 2.27273 0.0335693H11.7273C12.7063 0.0335693 13.5 0.81118 13.5 1.77041V6.40199C13.5 7.36122 12.7063 8.13883 11.7273 8.13883H2.27273C1.29368 8.13883 0.5 7.36122 0.5 6.40199V1.77041ZM3.45455 10.4546C3.45455 10.1349 3.7191 9.87567 4.04545 9.87567L6.11364 9.87568V8.13883H7.88636V9.87568L9.95455 9.87567C10.2809 9.87567 10.5455 10.1349 10.5455 10.4546C10.5455 10.7744 10.2809 11.0336 9.95455 11.0336H4.04545C3.7191 11.0336 3.45455 10.7744 3.45455 10.4546Z" fill="white"/>
</svg>
