<svg width="24" height="25" viewBox="0 0 24 25" fill="none" xmlns="http://www.w3.org/2000/svg">
<path d="M13.136 2.94849L2.62666 1.29031C2.10981 1.20303 1.59295 1.37758 1.24838 1.72667C0.903813 1.98849 0.645386 2.51212 0.645386 2.94849V23.3703C0.645386 23.9812 1.0761 24.4176 1.59295 24.4176H4.69407V19.3558C4.69407 18.3958 5.46936 17.6976 6.33078 17.6976H8.82891C9.77647 17.6976 10.4656 18.483 10.4656 19.3558V24.4176H14.5143V4.60667C14.5143 3.73394 13.9113 3.03576 13.136 2.94849Z" stroke="white" stroke-miterlimit="10"/>
<path d="M21.4918 11.6758L14.6866 10.1921V24.4176H21.1473C22.0948 24.4176 22.784 23.6321 22.784 22.7594V13.334C22.784 12.4612 22.2671 11.8503 21.4918 11.6758Z" stroke="white" stroke-miterlimit="10"/>
<path d="M5.90008 14.2941H4.43566C4.00495 14.2941 3.74652 13.945 3.74652 13.5959C3.74652 13.1595 4.09109 12.8977 4.43566 12.8977H5.90008C6.33079 12.8977 6.58922 13.2468 6.58922 13.5959C6.67536 13.945 6.33079 14.2941 5.90008 14.2941Z" fill="white"/>
<path d="M5.90008 10.454H4.43566C4.00495 10.454 3.74652 10.1049 3.74652 9.7558C3.74652 9.31944 4.09109 9.05762 4.43566 9.05762H5.90008C6.33079 9.05762 6.58922 9.40671 6.58922 9.7558C6.67536 10.1922 6.33079 10.454 5.90008 10.454Z" fill="white"/>
<path d="M5.90008 6.70117H4.43566C4.00495 6.70117 3.74652 6.35207 3.74652 6.00298C3.74652 5.56662 4.09109 5.21753 4.43566 5.21753H5.90008C6.33079 5.21753 6.58922 5.56662 6.58922 5.91571C6.67536 6.35207 6.33079 6.70117 5.90008 6.70117Z" fill="white"/>
<path d="M10.7241 14.2941H9.25963C8.82892 14.2941 8.5705 13.945 8.5705 13.5959C8.5705 13.1595 8.91506 12.8977 9.25963 12.8977H10.7241C11.1548 12.8977 11.4132 13.2468 11.4132 13.5959C11.4132 13.945 11.0686 14.2941 10.7241 14.2941Z" fill="white"/>
<path d="M10.7241 10.454H9.25963C8.82892 10.454 8.5705 10.1049 8.5705 9.7558C8.5705 9.31944 8.91506 9.05762 9.25963 9.05762H10.7241C11.1548 9.05762 11.4132 9.40671 11.4132 9.7558C11.4132 10.1922 11.0686 10.454 10.7241 10.454Z" fill="white"/>
<path d="M10.7241 6.70117H9.25963C8.82892 6.70117 8.5705 6.35207 8.5705 6.00298C8.5705 5.56662 8.82892 5.21753 9.25963 5.21753H10.7241C11.0686 5.21753 11.4132 5.56662 11.4132 6.00298C11.4132 6.35207 11.0686 6.70117 10.7241 6.70117Z" fill="white"/>
<path d="M19.1659 21.5377H17.7015C17.2708 21.5377 17.0124 21.1886 17.0124 20.8395C17.0124 20.4032 17.357 20.1414 17.7015 20.1414H19.1659C19.5967 20.1414 19.8551 20.4904 19.8551 20.8395C19.9412 21.1886 19.5967 21.5377 19.1659 21.5377Z" fill="white"/>
<path d="M19.1659 18.5704H17.7015C17.2708 18.5704 17.0124 18.2213 17.0124 17.8723C17.0124 17.4359 17.357 17.1741 17.7015 17.1741H19.1659C19.5967 17.1741 19.8551 17.5232 19.8551 17.8723C19.9412 18.2213 19.5967 18.5704 19.1659 18.5704Z" fill="white"/>
<path d="M19.1659 15.6903H17.7015C17.2708 15.6903 17.0124 15.3412 17.0124 14.9921C17.0124 14.5558 17.357 14.2939 17.7015 14.2939H19.1659C19.5967 14.2939 19.8551 14.643 19.8551 14.9921C19.9412 15.3412 19.5967 15.6903 19.1659 15.6903Z" fill="white"/>
</svg>
