<svg width="33" height="29" viewBox="0 0 33 29" fill="none" xmlns="http://www.w3.org/2000/svg">
<path d="M16.3966 25.2135C23.1284 25.2135 28.5655 19.7763 28.5655 13.0446C28.5655 6.31284 23.1284 1.00513 16.3966 1.00513C9.66489 1.00513 4.22772 6.4423 4.22772 13.174" />
<path d="M16.3966 25.2135C23.1284 25.2135 28.5655 19.7763 28.5655 13.0446C28.5655 6.31284 23.1284 1.00513 16.3966 1.00513C9.66489 1.00513 4.22772 6.4423 4.22772 13.174" stroke="white" stroke-width="2" stroke-miterlimit="10" stroke-linecap="round"/>
<path d="M3.96871 9.16083H7.33457C7.59349 9.16083 7.72294 9.29028 7.72294 9.5492V18.8701C7.72294 18.9995 7.59349 19.129 7.46403 19.129H3.96871C2.41523 19.129 1.12067 17.8344 1.12067 16.2809V12.0089C1.12067 10.4554 2.41523 9.16083 3.96871 9.16083Z"  stroke="white" stroke-width="2" stroke-miterlimit="10" stroke-linecap="round"/>
<path d="M28.3065 8.77248H24.9407C24.6818 8.77248 24.5523 8.90193 24.5523 9.16085V18.4817C24.5523 18.6112 24.6818 18.7406 24.8112 18.7406H28.3065C29.86 18.7406 31.1546 17.4461 31.1546 15.8926V11.6205C31.284 10.067 29.9895 8.77248 28.3065 8.77248Z"  stroke="white" stroke-width="2" stroke-miterlimit="10" stroke-linecap="round"/>
<path d="M16.0081 27.932C17.4381 27.932 18.5973 26.7728 18.5973 25.3429C18.5973 23.913 17.4381 22.7538 16.0081 22.7538C14.5782 22.7538 13.419 23.913 13.419 25.3429C13.419 26.7728 14.5782 27.932 16.0081 27.932Z"  stroke="white" stroke-width="2" stroke-miterlimit="10" stroke-linecap="round"/>
</svg>
