<svg width="39" height="41" viewBox="0 0 39 41" fill="none" xmlns="http://www.w3.org/2000/svg">
<path fill-rule="evenodd" clip-rule="evenodd" d="M22.4219 0.444458C19.3007 0.444458 16.5772 2.38001 15.4856 5.14774C14.7117 4.63655 13.7889 4.33335 12.7775 4.33335C9.93681 4.33335 7.64414 6.62601 7.64414 9.46668L7.64414 9.47778L7.64416 9.52304C4.42259 9.95094 1.96636 12.761 1.96636 16.0778C1.96636 19.6895 4.87451 22.6889 8.57747 22.6889H20.3224V31.4287C19.3582 31.6987 18.5985 32.4583 18.3285 33.4225H14.0222V32.0219C14.0222 30.5035 12.8184 29.2997 11.3 29.2997H3.05556C1.53711 29.2997 0.333336 30.5035 0.333336 32.0219V35.9108C0.333336 37.3891 1.49803 38.7108 3.05556 38.7108H6.47808V39.3334H4.53364C4.10408 39.3334 3.75586 39.6816 3.75586 40.1111C3.75586 40.5407 4.10408 40.8889 4.53364 40.8889H9.97808C10.4076 40.8889 10.7559 40.5407 10.7559 40.1111C10.7559 39.6816 10.4076 39.3334 9.97808 39.3334H8.03364V38.7108H11.3778C12.9162 38.7108 14.1139 37.4035 14.0222 35.8854V34.9781H18.3286C18.6679 36.1895 19.7802 37.0779 21.1 37.0779C22.4198 37.0779 23.5321 36.1895 23.8714 34.9781H28.5665V39.0219C28.5665 39.9182 29.3036 40.6553 30.1999 40.6553H36.5776C37.4738 40.6553 38.211 39.9182 38.211 39.0219V30.1553C38.211 29.259 37.4738 28.5219 36.5776 28.5219H30.1999C29.3036 28.5219 28.5665 29.259 28.5665 30.1553V33.4225H23.8715C23.6015 32.4584 22.842 31.6988 21.8779 31.4288V22.6889H32.3775C35.2181 22.6889 37.5108 20.3962 37.5108 17.5556C37.5108 17.5456 37.5106 17.5356 37.5102 17.5257C37.434 15.5426 36.3769 13.8478 34.7571 12.9867C35.0815 12.3096 35.2552 11.5476 35.2552 10.7889C35.2552 7.94824 32.9626 5.65557 30.1219 5.65557C29.9344 5.65557 29.7371 5.66997 29.5454 5.69284C28.6524 2.59899 25.7834 0.444458 22.4219 0.444458ZM27.4633 21.1333H32.3775C34.3541 21.1333 35.9473 19.5451 35.9552 17.5704C35.8839 15.8665 34.8444 14.5406 33.3955 14.0996C33.1505 14.0251 32.958 13.8348 32.8805 13.5907C32.8031 13.3467 32.8508 13.0802 33.008 12.8781C33.4404 12.3221 33.6997 11.559 33.6997 10.7889C33.6997 8.80735 32.1035 7.21112 30.1219 7.21112C29.8153 7.21112 29.4145 7.2758 29.1439 7.34346C28.9344 7.39584 28.7125 7.35874 28.5314 7.24106C28.3503 7.12338 28.2263 6.93571 28.1891 6.72298C27.7121 3.9971 25.3242 2.00001 22.4219 2.00001C19.6019 2.00001 17.1984 3.99631 16.6505 6.66741C16.5917 6.95424 16.3767 7.18373 16.0944 7.26119C15.812 7.33865 15.51 7.25097 15.3131 7.03431C14.6694 6.32629 13.7838 5.8889 12.7775 5.8889C10.7959 5.8889 9.1997 7.48512 9.1997 9.46668C9.1997 9.69304 9.20133 9.84412 9.25425 10.0558C9.31234 10.2882 9.26014 10.5343 9.11275 10.7231C8.96535 10.9119 8.7392 11.0222 8.4997 11.0222C5.75388 11.0222 3.52192 13.3048 3.52192 16.0778C3.52192 18.8439 5.74711 21.1333 8.57747 21.1333H15.0433C14.9372 20.8733 14.8779 20.5855 14.8779 20.2775V19.1108C14.8779 18.5461 15.094 18.0055 15.463 17.5951C15.1042 17.2038 14.8779 16.6796 14.8779 16.0779V14.9113C14.8779 14.3643 15.0806 13.84 15.4286 13.4347C15.0898 13.0478 14.8779 12.538 14.8779 11.9559V10.7892C14.8779 9.60878 15.822 8.53365 17.1335 8.53365H25.4557C26.6088 8.53365 27.7344 9.46295 27.6335 10.821V11.9559C27.6335 12.493 27.438 13.0084 27.1014 13.4105C27.4642 13.8167 27.6799 14.3551 27.6335 14.9455V16.0779C27.6335 16.6259 27.43 17.1512 27.0808 17.5568C27.4547 17.9543 27.6812 18.5005 27.6335 19.1426V20.2775C27.6335 20.5746 27.5737 20.865 27.4633 21.1333ZM17.1206 14.2114L17.1335 14.2114H25.3779L25.4048 14.2113H25.4557C25.8229 14.2113 26.109 14.5619 26.0818 14.8339C26.0792 14.8596 26.0779 14.8854 26.0779 14.9113V16.0779C26.0779 16.4531 25.7775 16.7779 25.3779 16.7779H17.1335C16.7584 16.7779 16.4335 16.4775 16.4335 16.0779V14.9113C16.4335 14.5402 16.7275 14.2183 17.1206 14.2114ZM25.3928 12.6557C25.785 12.6478 26.0779 12.3263 26.0779 11.9559V10.7892C26.0779 10.7657 26.079 10.7422 26.0811 10.7188C26.1113 10.3867 25.8473 10.0892 25.4557 10.0892H17.1335C16.7339 10.0892 16.4335 10.4141 16.4335 10.7892V11.9559C16.4335 12.3509 16.751 12.649 17.1207 12.6558L17.1335 12.6557H25.3928ZM16.4335 19.1108C16.4335 18.7357 16.7339 18.4108 17.1335 18.4108H25.4557C25.8473 18.4108 26.1113 18.7083 26.0811 19.0404C26.079 19.0638 26.0779 19.0873 26.0779 19.1108V20.2775C26.0779 20.6526 25.7775 20.9775 25.3779 20.9775H17.1335C16.7584 20.9775 16.4335 20.6771 16.4335 20.2775V19.1108ZM30.147 30.1025C30.1275 30.122 30.1221 30.1417 30.1221 30.1553V32.1776H36.6554V30.1553C36.6554 30.1417 36.6499 30.122 36.6304 30.1025C36.6109 30.0829 36.5912 30.0775 36.5776 30.0775H30.1999C30.1863 30.0775 30.1666 30.0829 30.147 30.1025ZM36.6554 33.7332H30.1221V35.4445H36.6554V33.7332ZM30.1221 39.0219V37H36.6554V39.0219C36.6554 39.0355 36.6499 39.0552 36.6304 39.0747C36.6109 39.0943 36.5912 39.0997 36.5776 39.0997H30.1999C30.1863 39.0997 30.1666 39.0943 30.147 39.0747C30.1275 39.0552 30.1221 39.0355 30.1221 39.0219ZM3.05556 30.8553C2.39622 30.8553 1.88889 31.3626 1.88889 32.0219V35.9108C1.88889 36.6103 2.43531 37.1553 3.05556 37.1553H11.3778C12.0071 37.1553 12.5149 36.6131 12.4686 35.9662C12.4673 35.9478 12.4667 35.9293 12.4667 35.9108V32.0219C12.4667 31.3626 11.9593 30.8553 11.3 30.8553H3.05556ZM19.7778 34.2002C19.7778 33.4699 20.3698 32.8779 21.1 32.8779C21.8302 32.8779 22.4222 33.4699 22.4222 34.2002C22.4222 34.9304 21.8302 35.5224 21.1 35.5224C20.3698 35.5224 19.7778 34.9304 19.7778 34.2002ZM17.6776 11.3333C17.6776 10.9038 18.0258 10.5556 18.4554 10.5556H18.9998C19.4294 10.5556 19.7776 10.9038 19.7776 11.3333C19.7776 11.7629 19.4294 12.1111 18.9998 12.1111H18.4554C18.0258 12.1111 17.6776 11.7629 17.6776 11.3333ZM18.1448 14.7559C17.7152 14.7559 17.367 15.1041 17.367 15.5337C17.367 15.9632 17.7152 16.3114 18.1448 16.3114H18.6892C19.1188 16.3114 19.467 15.9632 19.467 15.5337C19.467 15.1041 19.1188 14.7559 18.6892 14.7559H18.1448ZM17.133 19.6557C17.133 19.2262 17.4813 18.8779 17.9108 18.8779H18.4553C18.8848 18.8779 19.233 19.2262 19.233 19.6557C19.233 20.0853 18.8848 20.4335 18.4553 20.4335H17.9108C17.4813 20.4335 17.133 20.0853 17.133 19.6557Z" fill="white"/>
</svg>
