<svg width="40" height="40" viewBox="5 5 30 30" fill="none" xmlns="http://www.w3.org/2000/svg">
 <path d="M16.0608 25.4453L12.6431 28.8828C12.5577 28.9687 12.3868 28.8828 12.3868 28.7969V26.8203C10.9343 26.8203 9.48173 26.2187 8.37097 25.1016C6.14945 22.8672 6.14945 19.1719 8.37097 16.9375C9.56718 15.7344 11.1052 15.2188 12.6431 15.2188" stroke="white" stroke-miterlimit="10" stroke-linecap="round" stroke-linejoin="round"/>
<path d="M30.1589 11.0078C26.7412 7.57031 21.102 7.57031 17.6843 11.0078C14.2665 14.4453 14.2665 20.1172 17.6843 23.5547C19.3931 25.2734 21.7001 26.1328 23.9216 26.1328V29.2266C23.9216 29.4844 24.1779 29.5703 24.3488 29.3984L30.1589 23.5547C33.6621 20.1172 33.6621 14.5312 30.1589 11.0078Z" stroke="white" stroke-miterlimit="10"/>
<path d="M24.1779 22.9531C23.6653 22.9531 23.3235 22.6094 23.3235 22.0938C23.3235 21.5781 23.6653 21.2344 24.1779 21.2344C24.6906 21.2344 25.0323 21.5781 25.0323 22.0938C25.0323 22.6094 24.6051 22.9531 24.1779 22.9531Z" fill="white"/>
<path d="M25.9723 17.2812C25.0325 18.0547 24.8616 18.3125 24.7761 19.0859C24.6907 19.5156 24.5198 19.7734 24.178 19.7734C23.8363 19.7734 23.5799 19.5156 23.5799 19.0859C23.5799 18.0547 23.8363 17.625 25.0325 16.5938C25.8869 15.9062 26.1432 15.4766 26.1432 14.7891C26.1432 13.9297 25.4597 13.3281 24.4344 13.3281C23.4945 13.3281 22.8964 13.6719 22.5546 14.6172C22.3837 14.9609 22.2128 15.1328 21.9565 15.1328C21.6147 15.1328 21.4438 14.875 21.4438 14.5312C21.4438 14.0156 21.7856 13.3281 22.2983 12.8984C22.8109 12.4687 23.5799 12.2109 24.4344 12.2109C26.2287 12.2109 27.4249 13.2422 27.4249 14.7891C27.4249 15.8203 26.9976 16.4219 25.9723 17.2812Z" fill="white"/>
</svg>
