<svg width="40" height="40" viewBox="0 0 40 40" fill="none" xmlns="http://www.w3.org/2000/svg">
<path d="M25.4775 20.6716L24.9813 20.6095L24.9462 20.8908L25.1695 21.0654L25.4775 20.6716ZM27.0101 21.87L27.3199 21.4776L27.3181 21.4762L27.0101 21.87ZM27.0972 22.3349L27.5303 22.5852L27.5362 22.5743L27.0972 22.3349ZM25.6445 24.8481L25.2115 24.5978L25.2056 24.6087L25.6445 24.8481ZM25.2014 25.0079L25.0151 25.4719L25.0192 25.4735L25.2014 25.0079ZM23.3928 24.2816L23.5792 23.8176L23.318 23.7127L23.0928 23.8816L23.3928 24.2816ZM22.1653 24.9934L21.9757 24.5307L21.7109 24.6392L21.6703 24.9224L22.1653 24.9934ZM21.8893 26.9182L21.3942 26.8472L21.3931 26.8562L21.8893 26.9182ZM18.272 26.9182L18.7682 26.8562L18.7669 26.8473L18.272 26.9182ZM17.996 24.9934L18.4909 24.9224L18.4503 24.6392L18.1856 24.5307L17.996 24.9934ZM16.7684 24.2816L17.0733 23.8852L16.847 23.7112L16.5821 23.8176L16.7684 24.2816ZM14.9598 25.0079L15.1307 25.4778L15.1385 25.475L15.1462 25.4719L14.9598 25.0079ZM14.5167 24.8481L14.9558 24.6086L14.9496 24.5979L14.5167 24.8481ZM13.064 22.3349L12.6249 22.5744L12.6311 22.5851L13.064 22.3349ZM13.1512 21.87L12.8432 21.4762L12.8414 21.4776L13.1512 21.87ZM14.6838 20.6716L14.9918 21.0654L15.2151 20.8908L15.1799 20.6095L14.6838 20.6716ZM14.6838 19.2479L15.1799 19.3099L15.2151 19.0286L14.9918 18.854L14.6838 19.2479ZM13.1512 18.0494L12.8414 18.4419L12.8432 18.4433L13.1512 18.0494ZM13.064 17.5845L13.4945 17.8389L13.4969 17.8348L13.064 17.5845ZM14.5167 15.0714L14.9498 15.3217L14.9557 15.3108L14.5167 15.0714ZM14.9598 14.9116L15.1462 14.4476L15.142 14.4459L14.9598 14.9116ZM16.7684 15.6379L16.5821 16.1019L16.8433 16.2068L17.0684 16.0379L16.7684 15.6379ZM17.996 14.9261L18.1856 15.3887L18.4503 15.2802L18.4909 14.9971L17.996 14.9261ZM18.272 13.0012L18.767 13.0722L18.7681 13.0633L18.272 13.0012ZM21.8893 13.0012L21.393 13.0633L21.3943 13.0722L21.8893 13.0012ZM22.1653 14.9261L21.6703 14.9971L21.7109 15.2802L21.9757 15.3887L22.1653 14.9261ZM23.3928 15.6379L23.088 16.0342L23.3142 16.2083L23.5792 16.1019L23.3928 15.6379ZM25.2014 14.9116L25.0306 14.4417L25.0228 14.4445L25.0151 14.4476L25.2014 14.9116ZM25.6445 15.0714L25.2054 15.3109L25.2116 15.3216L25.6445 15.0714ZM27.0972 17.5845L27.5363 17.345L27.5301 17.3343L27.0972 17.5845ZM27.0101 18.0494L27.3181 18.4433L27.3199 18.4419L27.0101 18.0494ZM25.4775 19.2479L25.1695 18.854L24.9462 19.0286L24.9813 19.3099L25.4775 19.2479ZM25.9736 20.7336C26.0039 20.4914 26.0283 20.236 26.0283 19.9597H25.0283C25.0283 20.1774 25.0092 20.3869 24.9813 20.6095L25.9736 20.7336ZM27.3181 21.4762L25.7855 20.2777L25.1695 21.0654L26.7021 22.2639L27.3181 21.4762ZM27.5362 22.5743C27.7329 22.2137 27.6606 21.7466 27.3199 21.4776L26.7003 22.2625C26.6355 22.2114 26.6359 22.1366 26.6583 22.0955L27.5362 22.5743ZM26.0774 25.0983L27.5301 22.5851L26.6644 22.0847L25.2116 24.5979L26.0774 25.0983ZM25.0192 25.4735C25.415 25.6284 25.8728 25.4738 26.0835 25.0875L25.2056 24.6087C25.2419 24.5421 25.322 24.5182 25.3836 24.5423L25.0192 25.4735ZM23.2065 24.7455L25.0151 25.4719L25.3878 24.5439L23.5792 23.8176L23.2065 24.7455ZM22.3549 25.456C22.8457 25.2549 23.2893 24.9842 23.6928 24.6816L23.0928 23.8816C22.741 24.1454 22.371 24.3687 21.9757 24.5307L22.3549 25.456ZM22.3842 26.9892L22.6602 25.0644L21.6703 24.9224L21.3943 26.8473L22.3842 26.9892ZM21.5333 27.7233C21.954 27.7233 22.3307 27.4176 22.3854 26.9802L21.3931 26.8562C21.4042 26.7675 21.4759 26.7233 21.5333 26.7233V27.7233ZM18.6279 27.7233H21.5333V26.7233H18.6279V27.7233ZM17.7759 26.9802C17.8305 27.4176 18.2073 27.7233 18.6279 27.7233V26.7233C18.6854 26.7233 18.7571 26.7675 18.7681 26.8562L17.7759 26.9802ZM17.5011 25.0644L17.7771 26.9892L18.7669 26.8473L18.4909 24.9224L17.5011 25.0644ZM16.4636 24.6779C16.8739 24.9935 17.3191 25.2563 17.8064 25.456L18.1856 24.5307C17.7867 24.3673 17.4184 24.1507 17.0733 23.8852L16.4636 24.6779ZM15.1462 25.4719L16.9548 24.7455L16.5821 23.8176L14.7735 24.5439L15.1462 25.4719ZM14.0778 25.0875C14.2969 25.4891 14.7662 25.6104 15.1307 25.4778L14.789 24.538C14.8193 24.527 14.8476 24.528 14.8724 24.5365C14.8999 24.5458 14.9339 24.5687 14.9557 24.6087L14.0778 25.0875ZM12.6311 22.5851L14.0839 25.0983L14.9496 24.5979L13.4969 22.0847L12.6311 22.5851ZM12.8414 21.4776C12.5006 21.7466 12.4284 22.2137 12.6251 22.5743L13.503 22.0955C13.5254 22.1366 13.5257 22.2114 13.461 22.2625L12.8414 21.4776ZM14.3758 20.2777L12.8432 21.4762L13.4592 22.2639L14.9918 21.0654L14.3758 20.2777ZM14.133 19.9597C14.133 20.2285 14.1573 20.4909 14.1877 20.7336L15.1799 20.6095C15.1522 20.3874 15.133 20.1704 15.133 19.9597H14.133ZM14.1877 19.1859C14.1573 19.4286 14.133 19.691 14.133 19.9597H15.133C15.133 19.7491 15.1522 19.5321 15.1799 19.3099L14.1877 19.1859ZM12.8432 18.4433L14.3758 19.6418L14.9918 18.854L13.4592 17.6555L12.8432 18.4433ZM12.6336 17.3302C12.407 17.7136 12.5146 18.1839 12.8414 18.4419L13.461 17.657C13.5118 17.6971 13.5322 17.775 13.4945 17.8389L12.6336 17.3302ZM14.0839 14.8211L12.6311 17.3343L13.4969 17.8348L14.9496 15.3216L14.0839 14.8211ZM15.142 14.4459C14.7463 14.2911 14.2885 14.4457 14.0778 14.8319L14.9557 15.3108C14.9194 15.3774 14.8393 15.4013 14.7776 15.3772L15.142 14.4459ZM16.9548 15.1739L15.1462 14.4476L14.7735 15.3755L16.5821 16.1019L16.9548 15.1739ZM17.8064 14.4634C17.3156 14.6646 16.872 14.9352 16.4684 15.2379L17.0684 16.0379C17.4203 15.774 17.7902 15.5508 18.1856 15.3887L17.8064 14.4634ZM17.7771 12.9303L17.5011 14.8551L18.4909 14.9971L18.7669 13.0722L17.7771 12.9303ZM18.6279 12.1962C18.2073 12.1962 17.8305 12.5019 17.7759 12.9392L18.7681 13.0633C18.7571 13.1519 18.6854 13.1962 18.6279 13.1962V12.1962ZM21.5333 12.1962H18.6279V13.1962H21.5333V12.1962ZM22.3854 12.9392C22.3307 12.5019 21.954 12.1962 21.5333 12.1962V13.1962C21.4759 13.1962 21.4042 13.1519 21.3931 13.0633L22.3854 12.9392ZM22.6602 14.8551L22.3842 12.9303L21.3943 13.0722L21.6703 14.9971L22.6602 14.8551ZM23.6977 15.2416C23.2874 14.926 22.8422 14.6631 22.3549 14.4634L21.9757 15.3887C22.3745 15.5522 22.7429 15.7688 23.088 16.0342L23.6977 15.2416ZM25.0151 14.4476L23.2065 15.1739L23.5792 16.1019L25.3878 15.3755L25.0151 14.4476ZM26.0835 14.8319C25.8644 14.4303 25.3951 14.3091 25.0306 14.4417L25.3723 15.3815C25.342 15.3925 25.3137 15.3914 25.2889 15.383C25.2614 15.3736 25.2274 15.3508 25.2056 15.3108L26.0835 14.8319ZM27.5301 17.3343L26.0774 14.8211L25.2116 15.3216L26.6644 17.8348L27.5301 17.3343ZM27.3199 18.4419C27.6606 18.1729 27.7329 17.7058 27.5362 17.3451L26.6583 17.824C26.6359 17.7829 26.6355 17.7081 26.7003 17.657L27.3199 18.4419ZM25.7855 19.6418L27.3181 18.4433L26.7021 17.6555L25.1695 18.854L25.7855 19.6418ZM26.0283 19.9597C26.0283 19.6834 26.0039 19.4281 25.9736 19.1859L24.9813 19.3099C25.0092 19.5326 25.0283 19.7421 25.0283 19.9597H26.0283ZM20.0806 22.0019C18.9549 22.0019 18.0384 21.0854 18.0384 19.9597H17.0384C17.0384 21.6377 18.4026 23.0019 20.0806 23.0019V22.0019ZM22.1228 19.9597C22.1228 21.0854 21.2063 22.0019 20.0806 22.0019V23.0019C21.7586 23.0019 23.1228 21.6377 23.1228 19.9597H22.1228ZM20.0806 17.9174C21.2063 17.9174 22.1228 18.8339 22.1228 19.9597H23.1228C23.1228 18.2817 21.7586 16.9174 20.0806 16.9174V17.9174ZM18.0384 19.9597C18.0384 18.8339 18.9549 17.9174 20.0806 17.9174V16.9174C18.4026 16.9174 17.0384 18.2817 17.0384 19.9597H18.0384Z" fill="white"/>
<path d="M32.7619 15.9595C31.0342 10.3627 25.6978 6.45491 19.5666 6.67937C13.4354 6.90384 8.34016 11.1911 7.04479 16.9111" stroke="white" stroke-miterlimit="10" stroke-linecap="round"/>
<path d="M7.31527 23.939C9.04301 29.5358 14.3794 33.4436 20.5956 33.2411C26.8118 33.0385 31.737 28.7074 33.1174 23.0094" stroke="white" stroke-miterlimit="10" stroke-linecap="round"/>
<path d="M5.75301 27.0348L6.77502 23.0759L10.7339 24.0979" stroke="white" stroke-miterlimit="10" stroke-linecap="round" stroke-linejoin="round"/>
<path d="M34.439 13.2517L33.4616 17.0377L29.6756 16.0603" stroke="white" stroke-miterlimit="10" stroke-linecap="round" stroke-linejoin="round"/>
</svg>
