<svg width="13" height="12" viewBox="0 0 13 12" fill="none" xmlns="http://www.w3.org/2000/svg">
<path d="M5.66993 0.537299C6.05567 -0.124968 7.01242 -0.124968 7.39816 0.537299L8.55788 2.52843C8.69919 2.77103 8.93596 2.94305 9.21035 3.00247L11.4624 3.49015C12.2115 3.65235 12.5071 4.56228 11.9965 5.13379L10.4612 6.85204C10.2741 7.0614 10.1837 7.33974 10.2119 7.61907L10.444 9.91159C10.5213 10.6741 9.74722 11.2365 9.04589 10.9274L6.93729 9.99823C6.68038 9.88502 6.38771 9.88502 6.1308 9.99823L4.0222 10.9274C3.32086 11.2365 2.54684 10.6741 2.62404 9.91159L2.85616 7.61907C2.88444 7.33974 2.794 7.0614 2.60694 6.85204L1.07164 5.13378C0.560981 4.56228 0.856634 3.65235 1.60569 3.49015L3.85774 3.00247C4.13213 2.94305 4.3689 2.77103 4.51021 2.52843L5.66993 0.537299Z" fill="white"/>
</svg>
