<svg width="26" height="22" viewBox="0 0 26 22" fill="none" xmlns="http://www.w3.org/2000/svg">
<path d="M9.78589 10.3163C12.1914 10.3163 14.1673 8.35044 14.1673 5.78634C14.1673 3.30771 12.1055 1.42737 9.78589 1.42737C7.38039 1.42737 5.31854 3.30771 5.31854 5.78634C5.40445 8.35044 7.4663 10.3163 9.78589 10.3163ZM3.34259 20.5727H16.2292C17.8615 20.5727 18.377 20.1453 18.377 19.2051C18.377 16.5556 15.1124 12.9658 9.78589 12.9658C4.45943 12.9658 1.19482 16.5556 1.19482 19.2051C1.19482 20.1453 1.7962 20.5727 3.34259 20.5727Z" stroke="white" stroke-miterlimit="10"/>
<path d="M17.5178 5.78638H25.3357" stroke="white" stroke-miterlimit="10" stroke-linecap="round"/>
<path d="M21.4697 9.63249V1.94019" stroke="white" stroke-miterlimit="10" stroke-linecap="round"/>
</svg>
