<svg width="13" height="17" viewBox="-0.2 0 13 17" fill="none" xmlns="http://www.w3.org/2000/svg">
<path d="M11.831 1.01435C11.6184 0.794976 11.3113 0.648726 11.0043 0.648726L1.41371 0.599976C0.799539 0.599976 0.303475 1.0631 0.256231 1.67248C0.256231 1.69685 0.256231 1.7456 0.256231 1.79435L0.161743 14.9325C0.161743 15.1031 0.208987 15.2737 0.256231 15.42C0.445208 15.8344 0.846783 16.1269 1.31922 16.1269L10.9098 16.2C11.4767 16.2 11.9491 15.7856 12.0673 15.2006C12.0673 15.1275 12.0909 15.0544 12.0909 15.0056L12.1617 1.86748C12.1617 1.5506 12.0436 1.23373 11.831 1.01435ZM3.89403 14.445H2.07513V13.1044H3.8704V14.445H3.89403ZM3.89403 12.2512H2.07513V10.9106H3.8704V12.2512H3.89403ZM3.89403 10.0575H2.07513V8.71685H3.8704V10.0575H3.89403ZM3.89403 7.8881H2.07513V6.54748H3.8704V7.8881H3.89403ZM7.05938 14.445H5.26411V13.1044H7.05938V14.445ZM7.05938 12.2512H5.26411V10.9106H7.05938V12.2512ZM7.05938 10.0575H5.26411V8.71685H7.05938V10.0575ZM7.05938 7.8881H5.26411V6.54748H7.05938V7.8881ZM10.2484 14.445H8.45308V10.9106H10.2484V14.445ZM10.2484 10.0575H8.45308V8.71685H10.2484V10.0575ZM10.2484 7.8881H8.45308V6.54748H10.2484V7.8881ZM10.957 4.45123C10.957 4.5731 10.8625 4.69498 10.7208 4.69498H1.60269C1.48458 4.69498 1.36647 4.59748 1.36647 4.45123V2.15998C1.36647 2.0381 1.46096 1.91623 1.60269 1.91623H10.7444C10.8625 1.91623 10.9806 2.01373 10.9806 2.15998V4.45123H10.957Z" fill="white"/>
</svg>
