<svg width="42" height="39" viewBox="0 0 42 39" fill="none" xmlns="http://www.w3.org/2000/svg">
<path fill-rule="evenodd" clip-rule="evenodd" d="M0.777779 6.10003C0.777779 3.18158 3.07045 0.888916 5.98889 0.888916H36.0111C38.9296 0.888916 41.2222 3.18158 41.2222 6.10003V27.3334C41.2222 30.2607 38.8429 32.5445 36.0111 32.5445H26.5463C26.544 32.5452 26.5415 32.5461 26.5389 32.5472C26.5352 32.5486 26.5318 32.5502 26.5287 32.5517C26.5274 32.5524 26.5261 32.5531 26.5251 32.5537L21.5702 37.8956C21.4231 38.0543 21.2164 38.1445 21 38.1445C20.7836 38.1445 20.5769 38.0543 20.4298 37.8956L15.4664 32.5445H5.98889C3.06158 32.5445 0.777779 30.1651 0.777779 27.3334V6.10003ZM5.98889 2.44447C3.92956 2.44447 2.33333 4.04069 2.33333 6.10003V27.3334C2.33333 29.3238 3.93842 30.9889 5.98889 30.9889H15.4778C15.6852 30.9889 15.8928 31.0244 16.095 31.1143C16.2939 31.2027 16.4485 31.3264 16.5722 31.4501C16.5758 31.4537 16.5794 31.4574 16.583 31.4611C16.5862 31.4644 16.5893 31.4677 16.5925 31.4711L21 36.223L25.4075 31.4711C25.4142 31.464 25.4209 31.4569 25.4278 31.4501C25.7388 31.1391 26.1743 30.9889 26.5222 30.9889H36.0111C38.0016 30.9889 39.6667 29.3838 39.6667 27.3334V6.10003C39.6667 4.04069 38.0704 2.44447 36.0111 2.44447H5.98889Z" fill="white"/>
<path fill-rule="evenodd" clip-rule="evenodd" d="M18.6667 8.90004C18.3962 8.90004 18.1222 9.17404 18.1222 9.44448V12.0111H21.7778C22.2073 12.0111 22.5556 12.3594 22.5556 12.7889C22.5556 13.2185 22.2073 13.5667 21.7778 13.5667H15.4778C15.2073 13.5667 14.9333 13.8407 14.9333 14.1112V22.5889C14.9333 22.8594 15.2073 23.1334 15.4778 23.1334H26.9111C27.1816 23.1334 27.4556 22.8594 27.4556 22.5889V14.1112C27.4556 13.8407 27.1816 13.5667 26.9111 13.5667H25.0445C24.6149 13.5667 24.2667 13.2185 24.2667 12.7889V9.44448C24.2667 9.17404 23.9927 8.90004 23.7222 8.90004H18.6667ZM16.5667 12.0111V9.44448C16.5667 8.31493 17.5371 7.34448 18.6667 7.34448H23.7222C24.8518 7.34448 25.8222 8.31493 25.8222 9.44448V12.0111H26.9111C28.0407 12.0111 29.0111 12.9816 29.0111 14.1112V22.5889C29.0111 23.7185 28.0407 24.6889 26.9111 24.6889H15.4778C14.3482 24.6889 13.3778 23.7185 13.3778 22.5889V14.1112C13.3778 12.9816 14.3482 12.0111 15.4778 12.0111H16.5667Z" fill="white"/>
<path d="M21.1555 18.7778C22.0576 18.7778 22.7889 18.0465 22.7889 17.1444C22.7889 16.2424 22.0576 15.5111 21.1555 15.5111C20.2535 15.5111 19.5222 16.2424 19.5222 17.1444C19.5222 18.0465 20.2535 18.7778 21.1555 18.7778Z" fill="white"/>
<path fill-rule="evenodd" clip-rule="evenodd" d="M21.1556 16.3667C21.5851 16.3667 21.9333 16.7149 21.9333 17.1445V20.4111C21.9333 20.8407 21.5851 21.1889 21.1556 21.1889C20.726 21.1889 20.3778 20.8407 20.3778 20.4111V17.1445C20.3778 16.7149 20.726 16.3667 21.1556 16.3667Z" fill="white"/>
</svg>
