<svg width="46" height="37" viewBox="-9 0 55 37" fill="none" xmlns="http://www.w3.org/2000/svg">
<g clip-path="url(#clip0)">
<path d="M21.2 29.7H3.5C2.1 29.7 1 28.6 1 27.2V3.5C1 2.1 2.1 1 3.5 1H33.1C34.5 1 35.6 2.1 35.6 3.5V14.1" stroke="white" stroke-width="2" stroke-miterlimit="10" stroke-linecap="round" stroke-linejoin="round"/>
<path d="M1 8H32" stroke="white" stroke-width="2" stroke-miterlimit="10" stroke-linecap="round" stroke-linejoin="round"/>
<path d="M43.4 24.5L41.3 24.2C41 23.4 40.6 22.7 40 22.1L40.8 20.2C41 19.7 40.8 19.3 40.4 19L38.2 17.7C37.8 17.4 37.3 17.6 36.9 18L35.6 19.7C34.8 19.6 33.9 19.6 33.2 19.7L32 17.9C31.7 17.5 31.2 17.4 30.7 17.6L28.5 19C28.1 19.3 27.9 19.7 28.1 20.2L28.9 22.1C28.6 22.4 28.4 22.8 28.2 23.1C28 23.4 27.8 23.8 27.7 24.2L25.6 24.5C25.1 24.6 24.7 25 24.7 25.4V28C24.7 28.5 25 28.9 25.6 28.9L27.7 29.2C28 30 28.4 30.7 29 31.3L28.2 33.2C28 33.7 28.2 34.1 28.6 34.4L30.8 35.7C31.2 36 31.7 35.8 32.1 35.4L33.4 33.7C34.2 33.8 35.1 33.8 35.8 33.7L37.1 35.4C37.3 35.7 37.6 35.8 37.8 35.8C37.9 35.8 38.1 35.7 38.3 35.7L40.6 34.4C41 34.1 41.2 33.7 41 33.2L40.2 31.3C40.5 31 40.7 30.6 40.9 30.3C41.1 30 41.3 29.6 41.4 29.2L43.5 28.9C44 28.8 44.4 28.4 44.4 28V25.4C44.2 24.9 43.9 24.5 43.4 24.5Z" stroke="white" stroke-width="2" stroke-miterlimit="10" stroke-linecap="round" stroke-linejoin="round"/>
<path d="M34.5 29.9C36.2673 29.9 37.7 28.4673 37.7 26.7C37.7 24.9327 36.2673 23.5 34.5 23.5C32.7327 23.5 31.3 24.9327 31.3 26.7C31.3 28.4673 32.7327 29.9 34.5 29.9Z" stroke="white" stroke-width="2" stroke-miterlimit="10" stroke-linecap="round" stroke-linejoin="round"/>
</g>
<defs>
<clipPath id="clip0">
<rect width="45.2" height="36.9" fill="white"/>
</clipPath>
</defs>
</svg>
