<svg width="41" height="40" viewBox="5 5 31 30" fill="none" xmlns="http://www.w3.org/2000/svg">
<path d="M16.988 26.2383L13.4437 29.832C13.3551 29.9219 13.1779 29.832 13.1779 29.7422V27.6758C11.6715 27.6758 10.1652 27.0469 9.01331 25.8789C6.70951 23.543 6.70951 19.6797 9.01331 17.3437C10.2538 16.0859 11.8488 15.5469 13.4437 15.5469" stroke="white" stroke-miterlimit="10" stroke-linecap="round" stroke-linejoin="round"/>
<path d="M31.6083 11.1445C28.064 7.55078 22.2159 7.55078 18.6716 11.1445C15.1273 14.7383 15.1273 20.668 18.6716 24.2617C20.4437 26.0586 22.8362 26.957 25.1399 26.957V30.1914C25.1399 30.4609 25.4058 30.5508 25.583 30.3711L31.6083 24.2617C35.2412 20.668 35.2412 14.8281 31.6083 11.1445Z" stroke="white" stroke-miterlimit="10"/>
<path d="M22.0268 22.1473H28.2648C29.0209 22.1473 29.3044 21.9556 29.3044 21.4764C29.3044 20.1348 27.6977 18.314 25.0513 18.314C22.4049 18.314 20.7982 20.1348 20.7982 21.4764C20.8927 21.9556 21.1762 22.1473 22.0268 22.1473Z" stroke="white" stroke-miterlimit="10"/>
<path d="M25.1458 16.5891C26.28 16.5891 27.3196 15.6308 27.3196 14.3849C27.3196 13.0433 26.28 12.1808 25.1458 12.1808C24.0116 12.1808 22.972 13.1391 22.972 14.3849C22.972 15.6308 24.0116 16.5891 25.1458 16.5891Z" stroke="white" stroke-miterlimit="10"/>
</svg>
