<svg width="32" height="21" viewBox="0 0 32 21" fill="none" xmlns="http://www.w3.org/2000/svg">
<path d="M23.9675 16.3126C24.1019 16.0741 24.1867 15.8215 24.2221 15.5478C24.5119 15.6601 24.8231 15.7232 25.1342 15.7232C25.7564 15.7373 26.3361 15.4426 26.6826 14.9303C27.0503 14.3479 27.0644 13.6111 26.7321 13.0077C26.7675 12.313 27.1846 11.6955 27.8139 11.4008C28.125 11.7447 28.5634 11.9411 29.03 11.9411C29.2846 11.9411 29.532 11.885 29.7583 11.7727L31.3562 10.9377C31.6673 10.7763 31.7875 10.3974 31.6249 10.0887C31.4623 9.77994 31.0805 9.66065 30.7694 9.82204L29.1856 10.65C29.0159 10.7342 28.8108 10.6711 28.7189 10.5097L24.9715 3.3174C24.9362 3.24723 24.9291 3.17004 24.9503 3.09987C24.9786 3.02269 25.0352 2.95252 25.12 2.91743L26.9371 2.06138C27.2482 1.90701 27.3755 1.53511 27.227 1.21935C27.0715 0.910609 26.7038 0.784305 26.3856 0.93166L24.5756 1.80175C24.1867 1.98419 23.8968 2.31398 23.7625 2.71395C23.6635 3.01567 23.6564 3.33845 23.7483 3.64017C23.0271 4.08224 22.108 4.07522 21.4009 3.61912L19.8595 2.69289C19.3999 2.47537 18.8838 2.39117 18.3818 2.44029H16.0839C15.6101 2.41222 15.1435 2.55957 14.7758 2.85428C13.2062 2.48941 11.8769 3.19109 11.0001 3.65421L10.7668 3.78051C10.1588 4.08925 9.43756 4.09627 8.81535 3.80858L8.55374 3.68929C8.65273 3.38055 8.65273 3.05076 8.54667 2.74903C8.41233 2.34205 8.11537 2.01226 7.72649 1.82982L5.88815 0.93166C5.57704 0.784305 5.19523 0.917626 5.04675 1.22637C4.89827 1.53511 5.02554 1.90701 5.33664 2.06138L7.16791 2.9455C7.24569 2.98059 7.30933 3.05076 7.33761 3.13496C7.36589 3.21214 7.35882 3.28933 7.3164 3.3595L3.54073 10.6149C3.44881 10.7763 3.24376 10.8465 3.07407 10.7693L1.66703 10.0396C1.35593 9.87817 0.97412 9.99746 0.811498 10.3062C0.648876 10.6149 0.769075 10.9939 1.08018 11.1552L2.50843 11.892C3.30033 12.2709 4.24778 11.9622 4.66494 11.1973L7.99517 4.80497L8.29213 4.93829C8.75879 5.1488 9.26079 5.26107 9.77694 5.26107C10.3214 5.26107 10.8587 5.13477 11.3395 4.88216L11.587 4.75586C12.0819 4.46816 12.6193 4.25064 13.1708 4.09627L10.5052 6.15221C10.4911 6.16625 10.4769 6.18028 10.4628 6.1873C10.1305 6.49604 9.96078 6.9381 10.0032 7.38718C10.1022 7.85731 10.4345 8.25026 10.887 8.41165C10.9082 8.42568 10.9365 8.4327 10.9577 8.43971C11.9264 8.72039 12.9658 8.65724 13.892 8.25728C13.9061 8.25026 13.9274 8.24324 13.9415 8.23622L15.1506 7.55559L25.2473 13.2182C25.6432 13.4077 25.8059 13.8778 25.615 14.2707C25.6079 14.2778 25.6079 14.2848 25.6008 14.2918C25.5301 14.383 25.2049 14.6847 24.3635 14.2427L20.008 11.892C19.704 11.7236 19.3151 11.8359 19.1525 12.1446C18.9828 12.4463 19.0959 12.8323 19.407 12.9937L22.7019 14.7689C22.7372 14.804 22.7797 14.8321 22.8292 14.8602C22.8928 14.9093 22.9423 14.9794 22.9564 15.0566C23.0059 15.2671 22.9847 15.4847 22.8787 15.6741C22.7585 15.8776 22.2847 15.9337 22.0231 15.7934L18.6575 13.8848C18.3535 13.7094 17.9717 13.8146 17.7949 14.1164C17.6182 14.4181 17.7242 14.797 18.0283 14.9724L20.404 16.3267C20.4817 16.3688 20.5312 16.4389 20.5454 16.5232C20.5878 16.7126 20.5524 16.9161 20.4464 17.0845C20.2201 17.3582 19.8383 17.4494 19.506 17.3161L17.1091 15.8636C16.8121 15.6811 16.4233 15.7794 16.2394 16.0741C16.0556 16.3688 16.1546 16.7547 16.4445 16.9371L17.9858 17.8704C18.0778 17.9335 18.1414 18.0248 18.1626 18.13C18.2192 18.3405 18.1838 18.558 18.0778 18.7475C17.8303 19.0422 17.4202 19.1404 17.0667 18.9931L7.06893 12.8954C6.77196 12.713 6.38308 12.8042 6.19925 13.0989C6.01542 13.3936 6.10733 13.7796 6.4043 13.962C6.4043 13.962 6.4043 13.962 6.41137 13.962L16.4374 20.0597C16.4445 20.0667 16.4586 20.0737 16.4657 20.0737C16.7556 20.2281 17.0808 20.2982 17.4131 20.2982C18.1273 20.3193 18.799 19.9614 19.1808 19.365C19.3222 19.1264 19.407 18.8668 19.4494 18.5931C19.5696 18.6142 19.6898 18.6282 19.8171 18.6282C20.5171 18.6493 21.1747 18.2984 21.5423 17.716C21.6625 17.5125 21.7474 17.288 21.7898 17.0564C21.9807 17.1126 22.1857 17.1406 22.3837 17.1406C23.0271 17.1617 23.6281 16.8529 23.9675 16.3126ZM15.4617 6.29957C15.2708 6.19431 15.0304 6.19431 14.8394 6.29957L13.3405 7.14159C12.7183 7.3942 12.0324 7.4363 11.389 7.2679C11.3466 7.24684 11.3042 7.21878 11.2618 7.19071C11.2759 7.16264 11.29 7.14159 11.3113 7.11352C11.3113 7.11352 15.5606 3.83665 15.5748 3.81559C15.695 3.72438 15.8435 3.67526 15.9919 3.68929C16.0132 3.68929 18.3889 3.68929 18.3889 3.68929C18.403 3.68929 18.4101 3.68929 18.4242 3.68929C18.7 3.66824 18.9828 3.69631 19.2444 3.78753L20.7151 4.67165C21.7969 5.37334 23.1827 5.40842 24.2998 4.76287L27.1846 10.2992C26.4705 10.65 25.9261 11.2605 25.6644 12.0043L15.4617 6.29957Z" fill="white"/>
</svg>
