<svg width="13" height="13" viewBox="0 0 13 13" fill="none" xmlns="http://www.w3.org/2000/svg">
<path d="M7.04737 0.89418L1.09474 0C0.821053 0 0.547368 0.0687831 0.342105 0.206349C0.136842 0.412698 0 0.687831 0 0.962963V12.4497C0 12.7249 0.273684 13 0.547368 13H2.32632V10.1111C2.32632 9.56085 2.73684 9.14815 3.28421 9.14815H4.65263C5.2 9.14815 5.61053 9.56085 5.61053 10.1111V13H7.93684V1.85714C7.86842 1.37566 7.52632 1.03175 7.04737 0.89418ZM3.01053 7.91005H2.18947C1.98421 7.91005 1.77895 7.7037 1.77895 7.49735C1.77895 7.29101 1.98421 7.08466 2.18947 7.08466H3.01053C3.21579 7.08466 3.42105 7.29101 3.42105 7.49735C3.35263 7.77249 3.21579 7.91005 3.01053 7.91005ZM3.01053 6.32804H2.18947C1.98421 6.32804 1.77895 6.12169 1.77895 5.91534C1.77895 5.64021 1.91579 5.50265 2.18947 5.50265H3.01053C3.21579 5.50265 3.42105 5.70899 3.42105 5.91534C3.35263 6.12169 3.21579 6.32804 3.01053 6.32804ZM3.01053 4.67725H2.18947C1.98421 4.67725 1.77895 4.4709 1.77895 4.26455C1.77895 4.0582 1.98421 3.85185 2.18947 3.85185H3.01053C3.21579 3.85185 3.42105 4.0582 3.42105 4.26455C3.35263 4.4709 3.21579 4.67725 3.01053 4.67725ZM3.01053 3.02646H2.18947C1.98421 3.02646 1.77895 2.82011 1.77895 2.61376C1.77895 2.40741 1.98421 2.20106 2.18947 2.20106H3.01053C3.21579 2.20106 3.42105 2.40741 3.42105 2.61376C3.35263 2.82011 3.21579 3.02646 3.01053 3.02646ZM5.67895 7.91005H4.85789C4.65263 7.91005 4.44737 7.7037 4.44737 7.49735C4.44737 7.29101 4.65263 7.08466 4.85789 7.08466H5.67895C5.88421 7.08466 6.08947 7.29101 6.08947 7.49735C6.08947 7.77249 5.88421 7.91005 5.67895 7.91005ZM5.67895 6.32804H4.85789C4.65263 6.32804 4.44737 6.12169 4.44737 5.91534C4.44737 5.64021 4.65263 5.50265 4.85789 5.50265H5.67895C5.88421 5.50265 6.08947 5.70899 6.08947 5.91534C6.08947 6.12169 5.88421 6.32804 5.67895 6.32804ZM5.67895 4.67725H4.85789C4.65263 4.67725 4.44737 4.4709 4.44737 4.26455C4.44737 4.0582 4.65263 3.85185 4.85789 3.85185H5.67895C5.88421 3.85185 6.08947 4.0582 6.08947 4.26455C6.08947 4.4709 5.88421 4.67725 5.67895 4.67725ZM5.67895 3.02646H4.85789C4.65263 3.02646 4.44737 2.82011 4.44737 2.61376C4.44737 2.40741 4.65263 2.20106 4.85789 2.20106H5.67895C5.88421 2.20106 6.08947 2.40741 6.08947 2.61376C6.08947 2.82011 5.88421 3.02646 5.67895 3.02646Z" fill="white"/>
<path d="M12.2474 5.77779L8.41577 4.95239V12.9312H12.0421C12.5895 12.9312 13 12.5185 13 11.9683V6.74075C13 6.25927 12.7263 5.91536 12.2474 5.77779ZM10.9474 11.3492H10.1263C9.92103 11.3492 9.71577 11.1429 9.71577 10.9365C9.71577 10.7302 9.92103 10.5238 10.1263 10.5238H10.9474C11.1526 10.5238 11.3579 10.7302 11.3579 10.9365C11.3579 11.1429 11.221 11.3492 10.9474 11.3492ZM10.9474 9.69843H10.1263C9.92103 9.69843 9.71577 9.49208 9.71577 9.28573C9.71577 9.07938 9.92103 8.87303 10.1263 8.87303H10.9474C11.1526 8.87303 11.3579 9.07938 11.3579 9.28573C11.3579 9.49208 11.221 9.69843 10.9474 9.69843ZM10.9474 8.04763H10.1263C9.92103 8.04763 9.71577 7.84128 9.71577 7.63493C9.71577 7.42858 9.92103 7.22223 10.1263 7.22223H10.9474C11.1526 7.22223 11.3579 7.42858 11.3579 7.63493C11.3579 7.91007 11.221 8.04763 10.9474 8.04763Z" fill="white"/>
</svg>
